<svg xmlns="http://www.w3.org/2000/svg" xmlns:xlink="http://www.w3.org/1999/xlink" width="486" zoomAndPan="magnify" viewBox="0 0 364.5 92.249997" height="123" preserveAspectRatio="xMidYMid meet" version="1.0"><defs><g/><clipPath id="83d5ef3d01"><path d="M 8.128906 1 L 39 1 L 39 38 L 8.128906 38 Z M 8.128906 1 " clip-rule="nonzero"/></clipPath><clipPath id="27d7b44bad"><path d="M 7.648438 0 L 38 0 L 38 37 L 7.648438 37 Z M 7.648438 0 " clip-rule="nonzero"/></clipPath></defs><g fill="#5e17eb" fill-opacity="0.4"><g transform="translate(8.629762, 78.542544)"><g><path d="M 1.921875 -15.546875 L 9.28125 -15.546875 C 10.976562 -15.546875 12.484375 -15.222656 13.796875 -14.578125 C 15.117188 -13.941406 16.140625 -13.039062 16.859375 -11.875 C 17.585938 -10.707031 17.953125 -9.335938 17.953125 -7.765625 C 17.953125 -6.203125 17.585938 -4.832031 16.859375 -3.65625 C 16.140625 -2.488281 15.117188 -1.585938 13.796875 -0.953125 C 12.484375 -0.316406 10.976562 0 9.28125 0 L 1.921875 0 Z M 9.09375 -3.515625 C 10.425781 -3.515625 11.492188 -3.890625 12.296875 -4.640625 C 13.109375 -5.390625 13.515625 -6.429688 13.515625 -7.765625 C 13.515625 -9.097656 13.109375 -10.140625 12.296875 -10.890625 C 11.492188 -11.648438 10.425781 -12.03125 9.09375 -12.03125 L 6.328125 -12.03125 L 6.328125 -3.515625 Z M -0.0625 -9.25 L 9.921875 -9.25 L 9.921875 -6.53125 L -0.0625 -6.53125 Z M -0.0625 -9.25 "/></g></g></g><g fill="#5e17eb" fill-opacity="0.4"><g transform="translate(27.340981, 78.542544)"><g><path d="M 6.484375 -12.234375 C 8.484375 -12.234375 10.007812 -11.773438 11.0625 -10.859375 C 12.113281 -9.953125 12.640625 -8.5625 12.640625 -6.6875 L 12.640625 0 L 8.703125 0 L 8.703125 -1.546875 C 8.097656 -0.378906 6.914062 0.203125 5.15625 0.203125 C 4.21875 0.203125 3.40625 0.0390625 2.71875 -0.28125 C 2.039062 -0.613281 1.53125 -1.054688 1.1875 -1.609375 C 0.84375 -2.160156 0.671875 -2.796875 0.671875 -3.515625 C 0.671875 -4.648438 1.101562 -5.53125 1.96875 -6.15625 C 2.84375 -6.789062 4.191406 -7.109375 6.015625 -7.109375 L 8.421875 -7.109375 C 8.335938 -8.378906 7.484375 -9.015625 5.859375 -9.015625 C 5.285156 -9.015625 4.703125 -8.921875 4.109375 -8.734375 C 3.515625 -8.546875 3.007812 -8.289062 2.59375 -7.96875 L 1.171875 -10.828125 C 1.835938 -11.273438 2.648438 -11.617188 3.609375 -11.859375 C 4.566406 -12.109375 5.523438 -12.234375 6.484375 -12.234375 Z M 6.328125 -2.46875 C 6.816406 -2.46875 7.242188 -2.582031 7.609375 -2.8125 C 7.984375 -3.050781 8.253906 -3.398438 8.421875 -3.859375 L 8.421875 -4.90625 L 6.59375 -4.90625 C 5.363281 -4.90625 4.75 -4.5 4.75 -3.6875 C 4.75 -3.3125 4.890625 -3.015625 5.171875 -2.796875 C 5.453125 -2.578125 5.835938 -2.46875 6.328125 -2.46875 Z M 1.9375 -16.859375 L 6.15625 -16.859375 L 9.125 -13.484375 L 6.109375 -13.484375 Z M 1.9375 -16.859375 "/></g></g></g><g fill="#5e17eb" fill-opacity="0.4"><g transform="translate(41.280054, 78.542544)"><g><path d="M 1.359375 -12.03125 L 5.578125 -12.03125 L 5.578125 0 L 1.359375 0 Z M 3.46875 -13.359375 C 2.695312 -13.359375 2.070312 -13.570312 1.59375 -14 C 1.125 -14.4375 0.890625 -14.972656 0.890625 -15.609375 C 0.890625 -16.242188 1.125 -16.773438 1.59375 -17.203125 C 2.070312 -17.628906 2.695312 -17.84375 3.46875 -17.84375 C 4.238281 -17.84375 4.859375 -17.640625 5.328125 -17.234375 C 5.804688 -16.828125 6.046875 -16.304688 6.046875 -15.671875 C 6.046875 -15.003906 5.804688 -14.453125 5.328125 -14.015625 C 4.859375 -13.578125 4.238281 -13.359375 3.46875 -13.359375 Z M 3.46875 -13.359375 "/></g></g></g><g fill="#5e17eb" fill-opacity="0.4"><g transform="translate(48.227401, 78.542544)"><g/></g></g><g fill="#5e17eb" fill-opacity="0.4"><g transform="translate(54.686436, 78.542544)"><g><path d="M 9.65625 -0.484375 C 9.300781 -0.265625 8.867188 -0.0976562 8.359375 0.015625 C 7.847656 0.140625 7.304688 0.203125 6.734375 0.203125 C 5.160156 0.203125 3.953125 -0.179688 3.109375 -0.953125 C 2.265625 -1.722656 1.84375 -2.867188 1.84375 -4.390625 L 1.84375 -8.4375 L 0.09375 -8.4375 L 0.09375 -11.59375 L 1.84375 -11.59375 L 1.84375 -14.71875 L 6.0625 -14.71875 L 6.0625 -11.59375 L 8.8125 -11.59375 L 8.8125 -8.4375 L 6.0625 -8.4375 L 6.0625 -4.4375 C 6.0625 -4.007812 6.175781 -3.671875 6.40625 -3.421875 C 6.632812 -3.179688 6.941406 -3.0625 7.328125 -3.0625 C 7.816406 -3.0625 8.242188 -3.1875 8.609375 -3.4375 Z M 9.65625 -0.484375 "/></g></g></g><g fill="#5e17eb" fill-opacity="0.4"><g transform="translate(64.608042, 78.542544)"><g><path d="M 1.359375 -12.03125 L 5.578125 -12.03125 L 5.578125 0 L 1.359375 0 Z M 3.46875 -13.359375 C 2.695312 -13.359375 2.070312 -13.570312 1.59375 -14 C 1.125 -14.4375 0.890625 -14.972656 0.890625 -15.609375 C 0.890625 -16.242188 1.125 -16.773438 1.59375 -17.203125 C 2.070312 -17.628906 2.695312 -17.84375 3.46875 -17.84375 C 4.238281 -17.84375 4.859375 -17.640625 5.328125 -17.234375 C 5.804688 -16.828125 6.046875 -16.304688 6.046875 -15.671875 C 6.046875 -15.003906 5.804688 -14.453125 5.328125 -14.015625 C 4.859375 -13.578125 4.238281 -13.359375 3.46875 -13.359375 Z M 3.46875 -13.359375 "/></g></g></g><g fill="#5e17eb" fill-opacity="0.4"><g transform="translate(71.555388, 78.542544)"><g><path d="M 13.65625 -6 C 13.65625 -5.96875 13.632812 -5.617188 13.59375 -4.953125 L 4.84375 -4.953125 C 5.019531 -4.328125 5.363281 -3.847656 5.875 -3.515625 C 6.382812 -3.179688 7.023438 -3.015625 7.796875 -3.015625 C 8.367188 -3.015625 8.863281 -3.097656 9.28125 -3.265625 C 9.707031 -3.429688 10.132812 -3.695312 10.5625 -4.0625 L 12.78125 -1.75 C 11.613281 -0.445312 9.90625 0.203125 7.65625 0.203125 C 6.25 0.203125 5.015625 -0.0625 3.953125 -0.59375 C 2.890625 -1.132812 2.0625 -1.875 1.46875 -2.8125 C 0.882812 -3.757812 0.59375 -4.835938 0.59375 -6.046875 C 0.59375 -7.222656 0.878906 -8.28125 1.453125 -9.21875 C 2.023438 -10.164062 2.8125 -10.90625 3.8125 -11.4375 C 4.820312 -11.96875 5.957031 -12.234375 7.21875 -12.234375 C 8.414062 -12.234375 9.503906 -11.984375 10.484375 -11.484375 C 11.460938 -10.992188 12.234375 -10.273438 12.796875 -9.328125 C 13.367188 -8.390625 13.65625 -7.28125 13.65625 -6 Z M 7.234375 -9.234375 C 6.585938 -9.234375 6.046875 -9.046875 5.609375 -8.671875 C 5.171875 -8.304688 4.894531 -7.804688 4.78125 -7.171875 L 9.703125 -7.171875 C 9.585938 -7.804688 9.3125 -8.304688 8.875 -8.671875 C 8.4375 -9.046875 7.890625 -9.234375 7.234375 -9.234375 Z M 9 -13.484375 L 7.125 -14.78125 L 5.234375 -13.484375 L 2.40625 -13.484375 L 5.328125 -16.1875 L 8.921875 -16.1875 L 11.828125 -13.484375 Z M 12.40625 -18.46875 L 16.546875 -18.46875 L 12.96875 -15.703125 L 10.0625 -15.703125 Z M 12.40625 -18.46875 "/></g></g></g><g fill="#5e17eb" fill-opacity="0.4"><g transform="translate(85.805209, 78.542544)"><g><path d="M 9.1875 -12.234375 C 10.6875 -12.234375 11.890625 -11.785156 12.796875 -10.890625 C 13.710938 -10.003906 14.171875 -8.671875 14.171875 -6.890625 L 14.171875 0 L 9.953125 0 L 9.953125 -6.1875 C 9.953125 -7.832031 9.289062 -8.65625 7.96875 -8.65625 C 7.25 -8.65625 6.671875 -8.414062 6.234375 -7.9375 C 5.796875 -7.46875 5.578125 -6.757812 5.578125 -5.8125 L 5.578125 0 L 1.359375 0 L 1.359375 -12.03125 L 5.375 -12.03125 L 5.375 -10.71875 C 5.84375 -11.207031 6.398438 -11.582031 7.046875 -11.84375 C 7.703125 -12.101562 8.414062 -12.234375 9.1875 -12.234375 Z M 9.1875 -12.234375 "/></g></g></g><g fill="#5e17eb" fill-opacity="0.4"><g transform="translate(101.253618, 78.542544)"><g><path d="M 14.296875 -12.03125 L 14.296875 -2.203125 C 14.296875 0.0351562 13.6875 1.710938 12.46875 2.828125 C 11.257812 3.941406 9.515625 4.5 7.234375 4.5 C 6.054688 4.5 4.945312 4.363281 3.90625 4.09375 C 2.875 3.832031 1.992188 3.445312 1.265625 2.9375 L 2.796875 -0.015625 C 3.285156 0.378906 3.898438 0.691406 4.640625 0.921875 C 5.390625 1.148438 6.128906 1.265625 6.859375 1.265625 C 7.972656 1.265625 8.785156 1.019531 9.296875 0.53125 C 9.816406 0.0390625 10.078125 -0.679688 10.078125 -1.640625 L 10.078125 -2.046875 C 9.265625 -1.097656 8.070312 -0.625 6.5 -0.625 C 5.4375 -0.625 4.453125 -0.863281 3.546875 -1.34375 C 2.648438 -1.820312 1.929688 -2.5 1.390625 -3.375 C 0.859375 -4.257812 0.59375 -5.28125 0.59375 -6.4375 C 0.59375 -7.582031 0.859375 -8.59375 1.390625 -9.46875 C 1.929688 -10.351562 2.648438 -11.035156 3.546875 -11.515625 C 4.453125 -11.992188 5.4375 -12.234375 6.5 -12.234375 C 8.21875 -12.234375 9.476562 -11.675781 10.28125 -10.5625 L 10.28125 -12.03125 Z M 7.5 -3.96875 C 8.257812 -3.96875 8.882812 -4.195312 9.375 -4.65625 C 9.875 -5.113281 10.125 -5.707031 10.125 -6.4375 C 10.125 -7.164062 9.878906 -7.753906 9.390625 -8.203125 C 8.898438 -8.648438 8.269531 -8.875 7.5 -8.875 C 6.726562 -8.875 6.09375 -8.648438 5.59375 -8.203125 C 5.101562 -7.753906 4.859375 -7.164062 4.859375 -6.4375 C 4.859375 -5.707031 5.109375 -5.113281 5.609375 -4.65625 C 6.117188 -4.195312 6.75 -3.96875 7.5 -3.96875 Z M 7.5 -3.96875 "/></g></g></g><g fill="#5e17eb" fill-opacity="0.4"><g transform="translate(116.901786, 78.542544)"><g/></g></g><g fill="#5e17eb" fill-opacity="0.4"><g transform="translate(123.360822, 78.542544)"><g><path d="M 9.1875 -12.234375 C 10.6875 -12.234375 11.890625 -11.785156 12.796875 -10.890625 C 13.710938 -10.003906 14.171875 -8.671875 14.171875 -6.890625 L 14.171875 0 L 9.953125 0 L 9.953125 -6.1875 C 9.953125 -7.832031 9.289062 -8.65625 7.96875 -8.65625 C 7.25 -8.65625 6.671875 -8.414062 6.234375 -7.9375 C 5.796875 -7.46875 5.578125 -6.757812 5.578125 -5.8125 L 5.578125 0 L 1.359375 0 L 1.359375 -12.03125 L 5.375 -12.03125 L 5.375 -10.71875 C 5.84375 -11.207031 6.398438 -11.582031 7.046875 -11.84375 C 7.703125 -12.101562 8.414062 -12.234375 9.1875 -12.234375 Z M 9.1875 -12.234375 "/></g></g></g><g fill="#5e17eb" fill-opacity="0.4"><g transform="translate(138.809231, 78.542544)"><g><path d="M 7.390625 0.203125 C 6.109375 0.203125 4.945312 -0.0625 3.90625 -0.59375 C 2.875 -1.132812 2.0625 -1.875 1.46875 -2.8125 C 0.882812 -3.757812 0.59375 -4.835938 0.59375 -6.046875 C 0.59375 -7.222656 0.882812 -8.285156 1.46875 -9.234375 C 2.0625 -10.179688 2.867188 -10.914062 3.890625 -11.4375 C 4.921875 -11.96875 6.085938 -12.234375 7.390625 -12.234375 C 8.691406 -12.234375 9.859375 -11.96875 10.890625 -11.4375 C 11.929688 -10.914062 12.738281 -10.1875 13.3125 -9.25 C 13.894531 -8.3125 14.1875 -7.242188 14.1875 -6.046875 C 14.1875 -4.835938 13.894531 -3.757812 13.3125 -2.8125 C 12.738281 -1.875 11.929688 -1.132812 10.890625 -0.59375 C 9.859375 -0.0625 8.691406 0.203125 7.390625 0.203125 Z M 7.390625 -3.15625 C 8.128906 -3.15625 8.734375 -3.410156 9.203125 -3.921875 C 9.679688 -4.429688 9.921875 -5.140625 9.921875 -6.046875 C 9.921875 -6.929688 9.679688 -7.625 9.203125 -8.125 C 8.734375 -8.625 8.128906 -8.875 7.390625 -8.875 C 6.648438 -8.875 6.039062 -8.625 5.5625 -8.125 C 5.09375 -7.625 4.859375 -6.929688 4.859375 -6.046875 C 4.859375 -5.140625 5.09375 -4.429688 5.5625 -3.921875 C 6.039062 -3.410156 6.648438 -3.15625 7.390625 -3.15625 Z M 8.15625 -16.859375 L 12.375 -16.859375 L 8.203125 -13.484375 L 5.171875 -13.484375 Z M 8.15625 -16.859375 "/></g></g></g><g fill="#5e17eb" fill-opacity="0.4"><g transform="translate(153.591753, 78.542544)"><g><path d="M 1.359375 -12.03125 L 5.578125 -12.03125 L 5.578125 0 L 1.359375 0 Z M 3.46875 -13.359375 C 2.695312 -13.359375 2.070312 -13.570312 1.59375 -14 C 1.125 -14.4375 0.890625 -14.972656 0.890625 -15.609375 C 0.890625 -16.242188 1.125 -16.773438 1.59375 -17.203125 C 2.070312 -17.628906 2.695312 -17.84375 3.46875 -17.84375 C 4.238281 -17.84375 4.859375 -17.640625 5.328125 -17.234375 C 5.804688 -16.828125 6.046875 -16.304688 6.046875 -15.671875 C 6.046875 -15.003906 5.804688 -14.453125 5.328125 -14.015625 C 4.859375 -13.578125 4.238281 -13.359375 3.46875 -13.359375 Z M 3.46875 -13.359375 "/></g></g></g><g fill="#5e17eb" fill-opacity="0.4"><g transform="translate(160.5391, 78.542544)"><g/></g></g><g fill="#5e17eb" fill-opacity="0.4"><g transform="translate(166.998135, 78.542544)"><g><path d="M 14.015625 -12.03125 L 14.015625 0 L 9.984375 0 L 9.984375 -1.28125 C 9.546875 -0.800781 9.015625 -0.429688 8.390625 -0.171875 C 7.765625 0.078125 7.109375 0.203125 6.421875 0.203125 C 4.859375 0.203125 3.613281 -0.253906 2.6875 -1.171875 C 1.769531 -2.085938 1.3125 -3.46875 1.3125 -5.3125 L 1.3125 -12.03125 L 5.53125 -12.03125 L 5.53125 -6 C 5.53125 -5.09375 5.695312 -4.429688 6.03125 -4.015625 C 6.375 -3.597656 6.875 -3.390625 7.53125 -3.390625 C 8.195312 -3.390625 8.738281 -3.625 9.15625 -4.09375 C 9.582031 -4.5625 9.796875 -5.273438 9.796875 -6.234375 L 9.796875 -12.03125 Z M 11.296875 -12.03125 L 12.0625 -12.03125 C 12.414062 -12.03125 12.710938 -12.160156 12.953125 -12.421875 C 13.203125 -12.691406 13.328125 -13.03125 13.328125 -13.4375 C 13.328125 -13.664062 13.285156 -13.894531 13.203125 -14.125 C 13.117188 -14.351562 13.007812 -14.550781 12.875 -14.71875 L 15.328125 -15.59375 C 15.835938 -14.945312 16.09375 -14.164062 16.09375 -13.25 C 16.09375 -12.019531 15.722656 -11.066406 14.984375 -10.390625 C 14.242188 -9.710938 13.21875 -9.375 11.90625 -9.375 L 11.296875 -9.375 Z M 11.296875 -12.03125 "/></g></g></g><g fill="#5e17eb" fill-opacity="0.4"><g transform="translate(182.735085, 78.542544)"><g><path d="M 12.484375 -10.296875 C 13.023438 -9.753906 13.441406 -9.117188 13.734375 -8.390625 C 14.035156 -7.671875 14.1875 -6.890625 14.1875 -6.046875 C 14.1875 -4.835938 13.894531 -3.757812 13.3125 -2.8125 C 12.726562 -1.875 11.921875 -1.132812 10.890625 -0.59375 C 9.859375 -0.0625 8.691406 0.203125 7.390625 0.203125 C 6.085938 0.203125 4.921875 -0.0625 3.890625 -0.59375 C 2.867188 -1.132812 2.0625 -1.875 1.46875 -2.8125 C 0.882812 -3.757812 0.59375 -4.835938 0.59375 -6.046875 C 0.59375 -7.242188 0.882812 -8.3125 1.46875 -9.25 C 2.0625 -10.1875 2.875 -10.914062 3.90625 -11.4375 C 4.945312 -11.96875 6.125 -12.234375 7.4375 -12.234375 C 7.75 -12.234375 8.289062 -12.195312 9.0625 -12.125 C 9.53125 -12.0625 9.863281 -12.03125 10.0625 -12.03125 C 10.476562 -12.03125 10.796875 -12.15625 11.015625 -12.40625 C 11.234375 -12.65625 11.34375 -13 11.34375 -13.4375 C 11.34375 -13.90625 11.179688 -14.332031 10.859375 -14.71875 L 13.28125 -15.609375 C 13.8125 -14.898438 14.078125 -14.113281 14.078125 -13.25 C 14.078125 -12.613281 13.9375 -12.039062 13.65625 -11.53125 C 13.375 -11.019531 12.984375 -10.609375 12.484375 -10.296875 Z M 7.390625 -3.15625 C 8.128906 -3.15625 8.734375 -3.410156 9.203125 -3.921875 C 9.679688 -4.429688 9.921875 -5.140625 9.921875 -6.046875 C 9.921875 -6.929688 9.679688 -7.625 9.203125 -8.125 C 8.734375 -8.625 8.128906 -8.875 7.390625 -8.875 C 6.648438 -8.875 6.039062 -8.625 5.5625 -8.125 C 5.09375 -7.625 4.859375 -6.929688 4.859375 -6.046875 C 4.859375 -5.140625 5.09375 -4.429688 5.5625 -3.921875 C 6.039062 -3.410156 6.648438 -3.15625 7.390625 -3.15625 Z M 8.1875 -16.859375 L 12.40625 -16.859375 L 8.234375 -13.484375 L 5.203125 -13.484375 Z M 8.1875 -16.859375 "/></g></g></g><g fill="#5e17eb" fill-opacity="0.4"><g transform="translate(197.517608, 78.542544)"><g><path d="M 7.5 0.203125 C 6.164062 0.203125 4.972656 -0.0625 3.921875 -0.59375 C 2.878906 -1.132812 2.0625 -1.875 1.46875 -2.8125 C 0.882812 -3.757812 0.59375 -4.835938 0.59375 -6.046875 C 0.59375 -7.242188 0.882812 -8.3125 1.46875 -9.25 C 2.0625 -10.1875 2.878906 -10.914062 3.921875 -11.4375 C 4.972656 -11.96875 6.164062 -12.234375 7.5 -12.234375 C 8.863281 -12.234375 10.039062 -11.941406 11.03125 -11.359375 C 12.019531 -10.773438 12.722656 -9.960938 13.140625 -8.921875 L 9.875 -7.265625 C 9.332031 -8.335938 8.535156 -8.875 7.484375 -8.875 C 6.722656 -8.875 6.09375 -8.625 5.59375 -8.125 C 5.101562 -7.625 4.859375 -6.929688 4.859375 -6.046875 C 4.859375 -5.140625 5.101562 -4.429688 5.59375 -3.921875 C 6.09375 -3.410156 6.722656 -3.15625 7.484375 -3.15625 C 8.535156 -3.15625 9.332031 -3.695312 9.875 -4.78125 L 13.140625 -3.109375 C 12.722656 -2.066406 12.019531 -1.253906 11.03125 -0.671875 C 10.039062 -0.0859375 8.863281 0.203125 7.5 0.203125 Z M 7.5 0.203125 "/></g></g></g><g fill="#5e17eb" fill-opacity="0.4"><g transform="translate(210.901794, 78.542544)"><g/></g></g><g fill="#5e17eb" fill-opacity="0.4"><g transform="translate(217.36083, 78.542544)"><g><path d="M 17.03125 -12.234375 C 18.507812 -12.234375 19.6875 -11.785156 20.5625 -10.890625 C 21.445312 -10.003906 21.890625 -8.671875 21.890625 -6.890625 L 21.890625 0 L 17.671875 0 L 17.671875 -6.1875 C 17.671875 -7.03125 17.507812 -7.648438 17.1875 -8.046875 C 16.875 -8.453125 16.429688 -8.65625 15.859375 -8.65625 C 15.210938 -8.65625 14.695312 -8.429688 14.3125 -7.984375 C 13.9375 -7.546875 13.75 -6.875 13.75 -5.96875 L 13.75 0 L 9.53125 0 L 9.53125 -6.1875 C 9.53125 -7.832031 8.921875 -8.65625 7.703125 -8.65625 C 7.054688 -8.65625 6.539062 -8.429688 6.15625 -7.984375 C 5.769531 -7.546875 5.578125 -6.875 5.578125 -5.96875 L 5.578125 0 L 1.359375 0 L 1.359375 -12.03125 L 5.375 -12.03125 L 5.375 -10.765625 C 5.820312 -11.253906 6.347656 -11.617188 6.953125 -11.859375 C 7.566406 -12.109375 8.238281 -12.234375 8.96875 -12.234375 C 9.8125 -12.234375 10.566406 -12.078125 11.234375 -11.765625 C 11.898438 -11.453125 12.441406 -10.976562 12.859375 -10.34375 C 13.328125 -10.945312 13.921875 -11.410156 14.640625 -11.734375 C 15.367188 -12.066406 16.164062 -12.234375 17.03125 -12.234375 Z M 17.03125 -12.234375 "/></g></g></g><g fill="#5e17eb" fill-opacity="0.4"><g transform="translate(240.555644, 78.542544)"><g><path d="M 12.484375 -10.296875 C 13.023438 -9.753906 13.441406 -9.117188 13.734375 -8.390625 C 14.035156 -7.671875 14.1875 -6.890625 14.1875 -6.046875 C 14.1875 -4.835938 13.894531 -3.757812 13.3125 -2.8125 C 12.726562 -1.875 11.921875 -1.132812 10.890625 -0.59375 C 9.859375 -0.0625 8.691406 0.203125 7.390625 0.203125 C 6.085938 0.203125 4.921875 -0.0625 3.890625 -0.59375 C 2.867188 -1.132812 2.0625 -1.875 1.46875 -2.8125 C 0.882812 -3.757812 0.59375 -4.835938 0.59375 -6.046875 C 0.59375 -7.242188 0.882812 -8.3125 1.46875 -9.25 C 2.0625 -10.1875 2.875 -10.914062 3.90625 -11.4375 C 4.945312 -11.96875 6.125 -12.234375 7.4375 -12.234375 C 7.75 -12.234375 8.289062 -12.195312 9.0625 -12.125 C 9.53125 -12.0625 9.863281 -12.03125 10.0625 -12.03125 C 10.476562 -12.03125 10.796875 -12.15625 11.015625 -12.40625 C 11.234375 -12.65625 11.34375 -13 11.34375 -13.4375 C 11.34375 -13.90625 11.179688 -14.332031 10.859375 -14.71875 L 13.28125 -15.609375 C 13.8125 -14.898438 14.078125 -14.113281 14.078125 -13.25 C 14.078125 -12.613281 13.9375 -12.039062 13.65625 -11.53125 C 13.375 -11.019531 12.984375 -10.609375 12.484375 -10.296875 Z M 7.390625 -3.15625 C 8.128906 -3.15625 8.734375 -3.410156 9.203125 -3.921875 C 9.679688 -4.429688 9.921875 -5.140625 9.921875 -6.046875 C 9.921875 -6.929688 9.679688 -7.625 9.203125 -8.125 C 8.734375 -8.625 8.128906 -8.875 7.390625 -8.875 C 6.648438 -8.875 6.039062 -8.625 5.5625 -8.125 C 5.09375 -7.625 4.859375 -6.929688 4.859375 -6.046875 C 4.859375 -5.140625 5.09375 -4.429688 5.5625 -3.921875 C 6.039062 -3.410156 6.648438 -3.15625 7.390625 -3.15625 Z M 7.390625 -3.15625 "/></g></g></g><g fill="#5e17eb" fill-opacity="0.4"><g transform="translate(255.338179, 78.542544)"><g/></g></g><g fill="#5e17eb" fill-opacity="0.4"><g transform="translate(261.797214, 78.542544)"><g><path d="M 7.5 0.203125 C 6.164062 0.203125 4.972656 -0.0625 3.921875 -0.59375 C 2.878906 -1.132812 2.0625 -1.875 1.46875 -2.8125 C 0.882812 -3.757812 0.59375 -4.835938 0.59375 -6.046875 C 0.59375 -7.242188 0.882812 -8.3125 1.46875 -9.25 C 2.0625 -10.1875 2.878906 -10.914062 3.921875 -11.4375 C 4.972656 -11.96875 6.164062 -12.234375 7.5 -12.234375 C 8.863281 -12.234375 10.039062 -11.941406 11.03125 -11.359375 C 12.019531 -10.773438 12.722656 -9.960938 13.140625 -8.921875 L 9.875 -7.265625 C 9.332031 -8.335938 8.535156 -8.875 7.484375 -8.875 C 6.722656 -8.875 6.09375 -8.625 5.59375 -8.125 C 5.101562 -7.625 4.859375 -6.929688 4.859375 -6.046875 C 4.859375 -5.140625 5.101562 -4.429688 5.59375 -3.921875 C 6.09375 -3.410156 6.722656 -3.15625 7.484375 -3.15625 C 8.535156 -3.15625 9.332031 -3.695312 9.875 -4.78125 L 13.140625 -3.109375 C 12.722656 -2.066406 12.019531 -1.253906 11.03125 -0.671875 C 10.039062 -0.0859375 8.863281 0.203125 7.5 0.203125 Z M 7.5 0.203125 "/></g></g></g><g fill="#5e17eb" fill-opacity="0.4"><g transform="translate(275.181389, 78.542544)"><g><path d="M 14.015625 -12.03125 L 14.015625 0 L 9.984375 0 L 9.984375 -1.28125 C 9.546875 -0.800781 9.015625 -0.429688 8.390625 -0.171875 C 7.765625 0.078125 7.109375 0.203125 6.421875 0.203125 C 4.859375 0.203125 3.613281 -0.253906 2.6875 -1.171875 C 1.769531 -2.085938 1.3125 -3.46875 1.3125 -5.3125 L 1.3125 -12.03125 L 5.53125 -12.03125 L 5.53125 -6 C 5.53125 -5.09375 5.695312 -4.429688 6.03125 -4.015625 C 6.375 -3.597656 6.875 -3.390625 7.53125 -3.390625 C 8.195312 -3.390625 8.738281 -3.625 9.15625 -4.09375 C 9.582031 -4.5625 9.796875 -5.273438 9.796875 -6.234375 L 9.796875 -12.03125 Z M 7.171875 -14.546875 C 7.578125 -14.734375 7.859375 -14.929688 8.015625 -15.140625 C 8.179688 -15.347656 8.265625 -15.578125 8.265625 -15.828125 C 8.265625 -16.109375 8.171875 -16.328125 7.984375 -16.484375 C 7.804688 -16.640625 7.566406 -16.71875 7.265625 -16.71875 C 6.835938 -16.71875 6.410156 -16.570312 5.984375 -16.28125 L 5.109375 -17.921875 C 5.453125 -18.179688 5.851562 -18.378906 6.3125 -18.515625 C 6.769531 -18.660156 7.242188 -18.734375 7.734375 -18.734375 C 8.585938 -18.734375 9.285156 -18.492188 9.828125 -18.015625 C 10.367188 -17.546875 10.640625 -16.9375 10.640625 -16.1875 C 10.640625 -14.882812 9.914062 -13.90625 8.46875 -13.25 Z M 7.171875 -14.546875 "/></g></g></g><g fill="#5e17eb" fill-opacity="0.4"><g transform="translate(290.541005, 78.542544)"><g><path d="M 6.484375 -12.234375 C 8.484375 -12.234375 10.007812 -11.773438 11.0625 -10.859375 C 12.113281 -9.953125 12.640625 -8.5625 12.640625 -6.6875 L 12.640625 0 L 8.703125 0 L 8.703125 -1.546875 C 8.097656 -0.378906 6.914062 0.203125 5.15625 0.203125 C 4.21875 0.203125 3.40625 0.0390625 2.71875 -0.28125 C 2.039062 -0.613281 1.53125 -1.054688 1.1875 -1.609375 C 0.84375 -2.160156 0.671875 -2.796875 0.671875 -3.515625 C 0.671875 -4.648438 1.101562 -5.53125 1.96875 -6.15625 C 2.84375 -6.789062 4.191406 -7.109375 6.015625 -7.109375 L 8.421875 -7.109375 C 8.335938 -8.378906 7.484375 -9.015625 5.859375 -9.015625 C 5.285156 -9.015625 4.703125 -8.921875 4.109375 -8.734375 C 3.515625 -8.546875 3.007812 -8.289062 2.59375 -7.96875 L 1.171875 -10.828125 C 1.835938 -11.273438 2.648438 -11.617188 3.609375 -11.859375 C 4.566406 -12.109375 5.523438 -12.234375 6.484375 -12.234375 Z M 6.328125 -2.46875 C 6.816406 -2.46875 7.242188 -2.582031 7.609375 -2.8125 C 7.984375 -3.050781 8.253906 -3.398438 8.421875 -3.859375 L 8.421875 -4.90625 L 6.59375 -4.90625 C 5.363281 -4.90625 4.75 -4.5 4.75 -3.6875 C 4.75 -3.3125 4.890625 -3.015625 5.171875 -2.796875 C 5.453125 -2.578125 5.835938 -2.46875 6.328125 -2.46875 Z M 6.328125 -2.46875 "/></g></g></g><g fill="#5e17eb" fill-opacity="0.4"><g transform="translate(304.480089, 78.542544)"><g/></g></g><g fill="#5e17eb" fill-opacity="0.4"><g transform="translate(310.939125, 78.542544)"><g><path d="M 8.921875 -12.234375 C 10.015625 -12.234375 11.007812 -11.976562 11.90625 -11.46875 C 12.800781 -10.96875 13.507812 -10.25 14.03125 -9.3125 C 14.5625 -8.375 14.828125 -7.285156 14.828125 -6.046875 C 14.828125 -4.796875 14.5625 -3.695312 14.03125 -2.75 C 13.507812 -1.800781 12.800781 -1.070312 11.90625 -0.5625 C 11.007812 -0.0507812 10.015625 0.203125 8.921875 0.203125 C 7.335938 0.203125 6.15625 -0.265625 5.375 -1.203125 L 5.375 0 L 1.359375 0 L 1.359375 -16.46875 L 5.578125 -16.46875 L 5.578125 -10.984375 C 6.390625 -11.816406 7.503906 -12.234375 8.921875 -12.234375 Z M 8.03125 -3.15625 C 8.769531 -3.15625 9.375 -3.410156 9.84375 -3.921875 C 10.320312 -4.429688 10.5625 -5.140625 10.5625 -6.046875 C 10.5625 -6.929688 10.320312 -7.625 9.84375 -8.125 C 9.375 -8.625 8.769531 -8.875 8.03125 -8.875 C 7.289062 -8.875 6.679688 -8.625 6.203125 -8.125 C 5.734375 -7.625 5.5 -6.929688 5.5 -6.046875 C 5.5 -5.140625 5.734375 -4.429688 6.203125 -3.921875 C 6.679688 -3.410156 7.289062 -3.15625 8.03125 -3.15625 Z M 8.03125 -3.15625 "/></g></g></g><g fill="#5e17eb" fill-opacity="0.4"><g transform="translate(326.36535, 78.542544)"><g><path d="M 6.484375 -12.234375 C 8.484375 -12.234375 10.007812 -11.773438 11.0625 -10.859375 C 12.113281 -9.953125 12.640625 -8.5625 12.640625 -6.6875 L 12.640625 0 L 8.703125 0 L 8.703125 -1.546875 C 8.097656 -0.378906 6.914062 0.203125 5.15625 0.203125 C 4.21875 0.203125 3.40625 0.0390625 2.71875 -0.28125 C 2.039062 -0.613281 1.53125 -1.054688 1.1875 -1.609375 C 0.84375 -2.160156 0.671875 -2.796875 0.671875 -3.515625 C 0.671875 -4.648438 1.101562 -5.53125 1.96875 -6.15625 C 2.84375 -6.789062 4.191406 -7.109375 6.015625 -7.109375 L 8.421875 -7.109375 C 8.335938 -8.378906 7.484375 -9.015625 5.859375 -9.015625 C 5.285156 -9.015625 4.703125 -8.921875 4.109375 -8.734375 C 3.515625 -8.546875 3.007812 -8.289062 2.59375 -7.96875 L 1.171875 -10.828125 C 1.835938 -11.273438 2.648438 -11.617188 3.609375 -11.859375 C 4.566406 -12.109375 5.523438 -12.234375 6.484375 -12.234375 Z M 6.328125 -2.46875 C 6.816406 -2.46875 7.242188 -2.582031 7.609375 -2.8125 C 7.984375 -3.050781 8.253906 -3.398438 8.421875 -3.859375 L 8.421875 -4.90625 L 6.59375 -4.90625 C 5.363281 -4.90625 4.75 -4.5 4.75 -3.6875 C 4.75 -3.3125 4.890625 -3.015625 5.171875 -2.796875 C 5.453125 -2.578125 5.835938 -2.46875 6.328125 -2.46875 Z M 6.578125 4.84375 C 6.066406 4.84375 5.644531 4.6875 5.3125 4.375 C 4.976562 4.0625 4.8125 3.644531 4.8125 3.125 C 4.8125 2.613281 4.976562 2.191406 5.3125 1.859375 C 5.644531 1.535156 6.066406 1.375 6.578125 1.375 C 7.078125 1.375 7.492188 1.535156 7.828125 1.859375 C 8.160156 2.191406 8.328125 2.613281 8.328125 3.125 C 8.328125 3.644531 8.160156 4.0625 7.828125 4.375 C 7.492188 4.6875 7.078125 4.84375 6.578125 4.84375 Z M 6.578125 4.84375 "/></g></g></g><g fill="#5e17eb" fill-opacity="0.4"><g transform="translate(340.304412, 78.542544)"><g><path d="M 9.1875 -12.234375 C 10.6875 -12.234375 11.890625 -11.785156 12.796875 -10.890625 C 13.710938 -10.003906 14.171875 -8.671875 14.171875 -6.890625 L 14.171875 0 L 9.953125 0 L 9.953125 -6.1875 C 9.953125 -7.832031 9.289062 -8.65625 7.96875 -8.65625 C 7.25 -8.65625 6.671875 -8.414062 6.234375 -7.9375 C 5.796875 -7.46875 5.578125 -6.757812 5.578125 -5.8125 L 5.578125 0 L 1.359375 0 L 1.359375 -12.03125 L 5.375 -12.03125 L 5.375 -10.71875 C 5.84375 -11.207031 6.398438 -11.582031 7.046875 -11.84375 C 7.703125 -12.101562 8.414062 -12.234375 9.1875 -12.234375 Z M 9.1875 -12.234375 "/></g></g></g><g fill="#1a1444" fill-opacity="1"><g transform="translate(7.648655, 77.561437)"><g><path d="M 1.921875 -15.546875 L 9.28125 -15.546875 C 10.976562 -15.546875 12.484375 -15.222656 13.796875 -14.578125 C 15.117188 -13.941406 16.140625 -13.039062 16.859375 -11.875 C 17.585938 -10.707031 17.953125 -9.335938 17.953125 -7.765625 C 17.953125 -6.203125 17.585938 -4.832031 16.859375 -3.65625 C 16.140625 -2.488281 15.117188 -1.585938 13.796875 -0.953125 C 12.484375 -0.316406 10.976562 0 9.28125 0 L 1.921875 0 Z M 9.09375 -3.515625 C 10.425781 -3.515625 11.492188 -3.890625 12.296875 -4.640625 C 13.109375 -5.390625 13.515625 -6.429688 13.515625 -7.765625 C 13.515625 -9.097656 13.109375 -10.140625 12.296875 -10.890625 C 11.492188 -11.648438 10.425781 -12.03125 9.09375 -12.03125 L 6.328125 -12.03125 L 6.328125 -3.515625 Z M -0.0625 -9.25 L 9.921875 -9.25 L 9.921875 -6.53125 L -0.0625 -6.53125 Z M -0.0625 -9.25 "/></g></g></g><g fill="#1a1444" fill-opacity="1"><g transform="translate(26.359874, 77.561437)"><g><path d="M 6.484375 -12.234375 C 8.484375 -12.234375 10.007812 -11.773438 11.0625 -10.859375 C 12.113281 -9.953125 12.640625 -8.5625 12.640625 -6.6875 L 12.640625 0 L 8.703125 0 L 8.703125 -1.546875 C 8.097656 -0.378906 6.914062 0.203125 5.15625 0.203125 C 4.21875 0.203125 3.40625 0.0390625 2.71875 -0.28125 C 2.039062 -0.613281 1.53125 -1.054688 1.1875 -1.609375 C 0.84375 -2.160156 0.671875 -2.796875 0.671875 -3.515625 C 0.671875 -4.648438 1.101562 -5.53125 1.96875 -6.15625 C 2.84375 -6.789062 4.191406 -7.109375 6.015625 -7.109375 L 8.421875 -7.109375 C 8.335938 -8.378906 7.484375 -9.015625 5.859375 -9.015625 C 5.285156 -9.015625 4.703125 -8.921875 4.109375 -8.734375 C 3.515625 -8.546875 3.007812 -8.289062 2.59375 -7.96875 L 1.171875 -10.828125 C 1.835938 -11.273438 2.648438 -11.617188 3.609375 -11.859375 C 4.566406 -12.109375 5.523438 -12.234375 6.484375 -12.234375 Z M 6.328125 -2.46875 C 6.816406 -2.46875 7.242188 -2.582031 7.609375 -2.8125 C 7.984375 -3.050781 8.253906 -3.398438 8.421875 -3.859375 L 8.421875 -4.90625 L 6.59375 -4.90625 C 5.363281 -4.90625 4.75 -4.5 4.75 -3.6875 C 4.75 -3.3125 4.890625 -3.015625 5.171875 -2.796875 C 5.453125 -2.578125 5.835938 -2.46875 6.328125 -2.46875 Z M 1.9375 -16.859375 L 6.15625 -16.859375 L 9.125 -13.484375 L 6.109375 -13.484375 Z M 1.9375 -16.859375 "/></g></g></g><g fill="#1a1444" fill-opacity="1"><g transform="translate(40.298947, 77.561437)"><g><path d="M 1.359375 -12.03125 L 5.578125 -12.03125 L 5.578125 0 L 1.359375 0 Z M 3.46875 -13.359375 C 2.695312 -13.359375 2.070312 -13.570312 1.59375 -14 C 1.125 -14.4375 0.890625 -14.972656 0.890625 -15.609375 C 0.890625 -16.242188 1.125 -16.773438 1.59375 -17.203125 C 2.070312 -17.628906 2.695312 -17.84375 3.46875 -17.84375 C 4.238281 -17.84375 4.859375 -17.640625 5.328125 -17.234375 C 5.804688 -16.828125 6.046875 -16.304688 6.046875 -15.671875 C 6.046875 -15.003906 5.804688 -14.453125 5.328125 -14.015625 C 4.859375 -13.578125 4.238281 -13.359375 3.46875 -13.359375 Z M 3.46875 -13.359375 "/></g></g></g><g fill="#1a1444" fill-opacity="1"><g transform="translate(47.246294, 77.561437)"><g/></g></g><g fill="#1a1444" fill-opacity="1"><g transform="translate(53.705329, 77.561437)"><g><path d="M 9.65625 -0.484375 C 9.300781 -0.265625 8.867188 -0.0976562 8.359375 0.015625 C 7.847656 0.140625 7.304688 0.203125 6.734375 0.203125 C 5.160156 0.203125 3.953125 -0.179688 3.109375 -0.953125 C 2.265625 -1.722656 1.84375 -2.867188 1.84375 -4.390625 L 1.84375 -8.4375 L 0.09375 -8.4375 L 0.09375 -11.59375 L 1.84375 -11.59375 L 1.84375 -14.71875 L 6.0625 -14.71875 L 6.0625 -11.59375 L 8.8125 -11.59375 L 8.8125 -8.4375 L 6.0625 -8.4375 L 6.0625 -4.4375 C 6.0625 -4.007812 6.175781 -3.671875 6.40625 -3.421875 C 6.632812 -3.179688 6.941406 -3.0625 7.328125 -3.0625 C 7.816406 -3.0625 8.242188 -3.1875 8.609375 -3.4375 Z M 9.65625 -0.484375 "/></g></g></g><g fill="#1a1444" fill-opacity="1"><g transform="translate(63.626935, 77.561437)"><g><path d="M 1.359375 -12.03125 L 5.578125 -12.03125 L 5.578125 0 L 1.359375 0 Z M 3.46875 -13.359375 C 2.695312 -13.359375 2.070312 -13.570312 1.59375 -14 C 1.125 -14.4375 0.890625 -14.972656 0.890625 -15.609375 C 0.890625 -16.242188 1.125 -16.773438 1.59375 -17.203125 C 2.070312 -17.628906 2.695312 -17.84375 3.46875 -17.84375 C 4.238281 -17.84375 4.859375 -17.640625 5.328125 -17.234375 C 5.804688 -16.828125 6.046875 -16.304688 6.046875 -15.671875 C 6.046875 -15.003906 5.804688 -14.453125 5.328125 -14.015625 C 4.859375 -13.578125 4.238281 -13.359375 3.46875 -13.359375 Z M 3.46875 -13.359375 "/></g></g></g><g fill="#1a1444" fill-opacity="1"><g transform="translate(70.574281, 77.561437)"><g><path d="M 13.65625 -6 C 13.65625 -5.96875 13.632812 -5.617188 13.59375 -4.953125 L 4.84375 -4.953125 C 5.019531 -4.328125 5.363281 -3.847656 5.875 -3.515625 C 6.382812 -3.179688 7.023438 -3.015625 7.796875 -3.015625 C 8.367188 -3.015625 8.863281 -3.097656 9.28125 -3.265625 C 9.707031 -3.429688 10.132812 -3.695312 10.5625 -4.0625 L 12.78125 -1.75 C 11.613281 -0.445312 9.90625 0.203125 7.65625 0.203125 C 6.25 0.203125 5.015625 -0.0625 3.953125 -0.59375 C 2.890625 -1.132812 2.0625 -1.875 1.46875 -2.8125 C 0.882812 -3.757812 0.59375 -4.835938 0.59375 -6.046875 C 0.59375 -7.222656 0.878906 -8.28125 1.453125 -9.21875 C 2.023438 -10.164062 2.8125 -10.90625 3.8125 -11.4375 C 4.820312 -11.96875 5.957031 -12.234375 7.21875 -12.234375 C 8.414062 -12.234375 9.503906 -11.984375 10.484375 -11.484375 C 11.460938 -10.992188 12.234375 -10.273438 12.796875 -9.328125 C 13.367188 -8.390625 13.65625 -7.28125 13.65625 -6 Z M 7.234375 -9.234375 C 6.585938 -9.234375 6.046875 -9.046875 5.609375 -8.671875 C 5.171875 -8.304688 4.894531 -7.804688 4.78125 -7.171875 L 9.703125 -7.171875 C 9.585938 -7.804688 9.3125 -8.304688 8.875 -8.671875 C 8.4375 -9.046875 7.890625 -9.234375 7.234375 -9.234375 Z M 9 -13.484375 L 7.125 -14.78125 L 5.234375 -13.484375 L 2.40625 -13.484375 L 5.328125 -16.1875 L 8.921875 -16.1875 L 11.828125 -13.484375 Z M 12.40625 -18.46875 L 16.546875 -18.46875 L 12.96875 -15.703125 L 10.0625 -15.703125 Z M 12.40625 -18.46875 "/></g></g></g><g fill="#1a1444" fill-opacity="1"><g transform="translate(84.824102, 77.561437)"><g><path d="M 9.1875 -12.234375 C 10.6875 -12.234375 11.890625 -11.785156 12.796875 -10.890625 C 13.710938 -10.003906 14.171875 -8.671875 14.171875 -6.890625 L 14.171875 0 L 9.953125 0 L 9.953125 -6.1875 C 9.953125 -7.832031 9.289062 -8.65625 7.96875 -8.65625 C 7.25 -8.65625 6.671875 -8.414062 6.234375 -7.9375 C 5.796875 -7.46875 5.578125 -6.757812 5.578125 -5.8125 L 5.578125 0 L 1.359375 0 L 1.359375 -12.03125 L 5.375 -12.03125 L 5.375 -10.71875 C 5.84375 -11.207031 6.398438 -11.582031 7.046875 -11.84375 C 7.703125 -12.101562 8.414062 -12.234375 9.1875 -12.234375 Z M 9.1875 -12.234375 "/></g></g></g><g fill="#1a1444" fill-opacity="1"><g transform="translate(100.272511, 77.561437)"><g><path d="M 14.296875 -12.03125 L 14.296875 -2.203125 C 14.296875 0.0351562 13.6875 1.710938 12.46875 2.828125 C 11.257812 3.941406 9.515625 4.5 7.234375 4.5 C 6.054688 4.5 4.945312 4.363281 3.90625 4.09375 C 2.875 3.832031 1.992188 3.445312 1.265625 2.9375 L 2.796875 -0.015625 C 3.285156 0.378906 3.898438 0.691406 4.640625 0.921875 C 5.390625 1.148438 6.128906 1.265625 6.859375 1.265625 C 7.972656 1.265625 8.785156 1.019531 9.296875 0.53125 C 9.816406 0.0390625 10.078125 -0.679688 10.078125 -1.640625 L 10.078125 -2.046875 C 9.265625 -1.097656 8.070312 -0.625 6.5 -0.625 C 5.4375 -0.625 4.453125 -0.863281 3.546875 -1.34375 C 2.648438 -1.820312 1.929688 -2.5 1.390625 -3.375 C 0.859375 -4.257812 0.59375 -5.28125 0.59375 -6.4375 C 0.59375 -7.582031 0.859375 -8.59375 1.390625 -9.46875 C 1.929688 -10.351562 2.648438 -11.035156 3.546875 -11.515625 C 4.453125 -11.992188 5.4375 -12.234375 6.5 -12.234375 C 8.21875 -12.234375 9.476562 -11.675781 10.28125 -10.5625 L 10.28125 -12.03125 Z M 7.5 -3.96875 C 8.257812 -3.96875 8.882812 -4.195312 9.375 -4.65625 C 9.875 -5.113281 10.125 -5.707031 10.125 -6.4375 C 10.125 -7.164062 9.878906 -7.753906 9.390625 -8.203125 C 8.898438 -8.648438 8.269531 -8.875 7.5 -8.875 C 6.726562 -8.875 6.09375 -8.648438 5.59375 -8.203125 C 5.101562 -7.753906 4.859375 -7.164062 4.859375 -6.4375 C 4.859375 -5.707031 5.109375 -5.113281 5.609375 -4.65625 C 6.117188 -4.195312 6.75 -3.96875 7.5 -3.96875 Z M 7.5 -3.96875 "/></g></g></g><g fill="#1a1444" fill-opacity="1"><g transform="translate(115.920679, 77.561437)"><g/></g></g><g fill="#1a1444" fill-opacity="1"><g transform="translate(122.379715, 77.561437)"><g><path d="M 9.1875 -12.234375 C 10.6875 -12.234375 11.890625 -11.785156 12.796875 -10.890625 C 13.710938 -10.003906 14.171875 -8.671875 14.171875 -6.890625 L 14.171875 0 L 9.953125 0 L 9.953125 -6.1875 C 9.953125 -7.832031 9.289062 -8.65625 7.96875 -8.65625 C 7.25 -8.65625 6.671875 -8.414062 6.234375 -7.9375 C 5.796875 -7.46875 5.578125 -6.757812 5.578125 -5.8125 L 5.578125 0 L 1.359375 0 L 1.359375 -12.03125 L 5.375 -12.03125 L 5.375 -10.71875 C 5.84375 -11.207031 6.398438 -11.582031 7.046875 -11.84375 C 7.703125 -12.101562 8.414062 -12.234375 9.1875 -12.234375 Z M 9.1875 -12.234375 "/></g></g></g><g fill="#1a1444" fill-opacity="1"><g transform="translate(137.828124, 77.561437)"><g><path d="M 7.390625 0.203125 C 6.109375 0.203125 4.945312 -0.0625 3.90625 -0.59375 C 2.875 -1.132812 2.0625 -1.875 1.46875 -2.8125 C 0.882812 -3.757812 0.59375 -4.835938 0.59375 -6.046875 C 0.59375 -7.222656 0.882812 -8.285156 1.46875 -9.234375 C 2.0625 -10.179688 2.867188 -10.914062 3.890625 -11.4375 C 4.921875 -11.96875 6.085938 -12.234375 7.390625 -12.234375 C 8.691406 -12.234375 9.859375 -11.96875 10.890625 -11.4375 C 11.929688 -10.914062 12.738281 -10.1875 13.3125 -9.25 C 13.894531 -8.3125 14.1875 -7.242188 14.1875 -6.046875 C 14.1875 -4.835938 13.894531 -3.757812 13.3125 -2.8125 C 12.738281 -1.875 11.929688 -1.132812 10.890625 -0.59375 C 9.859375 -0.0625 8.691406 0.203125 7.390625 0.203125 Z M 7.390625 -3.15625 C 8.128906 -3.15625 8.734375 -3.410156 9.203125 -3.921875 C 9.679688 -4.429688 9.921875 -5.140625 9.921875 -6.046875 C 9.921875 -6.929688 9.679688 -7.625 9.203125 -8.125 C 8.734375 -8.625 8.128906 -8.875 7.390625 -8.875 C 6.648438 -8.875 6.039062 -8.625 5.5625 -8.125 C 5.09375 -7.625 4.859375 -6.929688 4.859375 -6.046875 C 4.859375 -5.140625 5.09375 -4.429688 5.5625 -3.921875 C 6.039062 -3.410156 6.648438 -3.15625 7.390625 -3.15625 Z M 8.15625 -16.859375 L 12.375 -16.859375 L 8.203125 -13.484375 L 5.171875 -13.484375 Z M 8.15625 -16.859375 "/></g></g></g><g fill="#1a1444" fill-opacity="1"><g transform="translate(152.610646, 77.561437)"><g><path d="M 1.359375 -12.03125 L 5.578125 -12.03125 L 5.578125 0 L 1.359375 0 Z M 3.46875 -13.359375 C 2.695312 -13.359375 2.070312 -13.570312 1.59375 -14 C 1.125 -14.4375 0.890625 -14.972656 0.890625 -15.609375 C 0.890625 -16.242188 1.125 -16.773438 1.59375 -17.203125 C 2.070312 -17.628906 2.695312 -17.84375 3.46875 -17.84375 C 4.238281 -17.84375 4.859375 -17.640625 5.328125 -17.234375 C 5.804688 -16.828125 6.046875 -16.304688 6.046875 -15.671875 C 6.046875 -15.003906 5.804688 -14.453125 5.328125 -14.015625 C 4.859375 -13.578125 4.238281 -13.359375 3.46875 -13.359375 Z M 3.46875 -13.359375 "/></g></g></g><g fill="#1a1444" fill-opacity="1"><g transform="translate(159.557993, 77.561437)"><g/></g></g><g fill="#1a1444" fill-opacity="1"><g transform="translate(166.017028, 77.561437)"><g><path d="M 14.015625 -12.03125 L 14.015625 0 L 9.984375 0 L 9.984375 -1.28125 C 9.546875 -0.800781 9.015625 -0.429688 8.390625 -0.171875 C 7.765625 0.078125 7.109375 0.203125 6.421875 0.203125 C 4.859375 0.203125 3.613281 -0.253906 2.6875 -1.171875 C 1.769531 -2.085938 1.3125 -3.46875 1.3125 -5.3125 L 1.3125 -12.03125 L 5.53125 -12.03125 L 5.53125 -6 C 5.53125 -5.09375 5.695312 -4.429688 6.03125 -4.015625 C 6.375 -3.597656 6.875 -3.390625 7.53125 -3.390625 C 8.195312 -3.390625 8.738281 -3.625 9.15625 -4.09375 C 9.582031 -4.5625 9.796875 -5.273438 9.796875 -6.234375 L 9.796875 -12.03125 Z M 11.296875 -12.03125 L 12.0625 -12.03125 C 12.414062 -12.03125 12.710938 -12.160156 12.953125 -12.421875 C 13.203125 -12.691406 13.328125 -13.03125 13.328125 -13.4375 C 13.328125 -13.664062 13.285156 -13.894531 13.203125 -14.125 C 13.117188 -14.351562 13.007812 -14.550781 12.875 -14.71875 L 15.328125 -15.59375 C 15.835938 -14.945312 16.09375 -14.164062 16.09375 -13.25 C 16.09375 -12.019531 15.722656 -11.066406 14.984375 -10.390625 C 14.242188 -9.710938 13.21875 -9.375 11.90625 -9.375 L 11.296875 -9.375 Z M 11.296875 -12.03125 "/></g></g></g><g fill="#1a1444" fill-opacity="1"><g transform="translate(181.753978, 77.561437)"><g><path d="M 12.484375 -10.296875 C 13.023438 -9.753906 13.441406 -9.117188 13.734375 -8.390625 C 14.035156 -7.671875 14.1875 -6.890625 14.1875 -6.046875 C 14.1875 -4.835938 13.894531 -3.757812 13.3125 -2.8125 C 12.726562 -1.875 11.921875 -1.132812 10.890625 -0.59375 C 9.859375 -0.0625 8.691406 0.203125 7.390625 0.203125 C 6.085938 0.203125 4.921875 -0.0625 3.890625 -0.59375 C 2.867188 -1.132812 2.0625 -1.875 1.46875 -2.8125 C 0.882812 -3.757812 0.59375 -4.835938 0.59375 -6.046875 C 0.59375 -7.242188 0.882812 -8.3125 1.46875 -9.25 C 2.0625 -10.1875 2.875 -10.914062 3.90625 -11.4375 C 4.945312 -11.96875 6.125 -12.234375 7.4375 -12.234375 C 7.75 -12.234375 8.289062 -12.195312 9.0625 -12.125 C 9.53125 -12.0625 9.863281 -12.03125 10.0625 -12.03125 C 10.476562 -12.03125 10.796875 -12.15625 11.015625 -12.40625 C 11.234375 -12.65625 11.34375 -13 11.34375 -13.4375 C 11.34375 -13.90625 11.179688 -14.332031 10.859375 -14.71875 L 13.28125 -15.609375 C 13.8125 -14.898438 14.078125 -14.113281 14.078125 -13.25 C 14.078125 -12.613281 13.9375 -12.039062 13.65625 -11.53125 C 13.375 -11.019531 12.984375 -10.609375 12.484375 -10.296875 Z M 7.390625 -3.15625 C 8.128906 -3.15625 8.734375 -3.410156 9.203125 -3.921875 C 9.679688 -4.429688 9.921875 -5.140625 9.921875 -6.046875 C 9.921875 -6.929688 9.679688 -7.625 9.203125 -8.125 C 8.734375 -8.625 8.128906 -8.875 7.390625 -8.875 C 6.648438 -8.875 6.039062 -8.625 5.5625 -8.125 C 5.09375 -7.625 4.859375 -6.929688 4.859375 -6.046875 C 4.859375 -5.140625 5.09375 -4.429688 5.5625 -3.921875 C 6.039062 -3.410156 6.648438 -3.15625 7.390625 -3.15625 Z M 8.1875 -16.859375 L 12.40625 -16.859375 L 8.234375 -13.484375 L 5.203125 -13.484375 Z M 8.1875 -16.859375 "/></g></g></g><g fill="#1a1444" fill-opacity="1"><g transform="translate(196.536501, 77.561437)"><g><path d="M 7.5 0.203125 C 6.164062 0.203125 4.972656 -0.0625 3.921875 -0.59375 C 2.878906 -1.132812 2.0625 -1.875 1.46875 -2.8125 C 0.882812 -3.757812 0.59375 -4.835938 0.59375 -6.046875 C 0.59375 -7.242188 0.882812 -8.3125 1.46875 -9.25 C 2.0625 -10.1875 2.878906 -10.914062 3.921875 -11.4375 C 4.972656 -11.96875 6.164062 -12.234375 7.5 -12.234375 C 8.863281 -12.234375 10.039062 -11.941406 11.03125 -11.359375 C 12.019531 -10.773438 12.722656 -9.960938 13.140625 -8.921875 L 9.875 -7.265625 C 9.332031 -8.335938 8.535156 -8.875 7.484375 -8.875 C 6.722656 -8.875 6.09375 -8.625 5.59375 -8.125 C 5.101562 -7.625 4.859375 -6.929688 4.859375 -6.046875 C 4.859375 -5.140625 5.101562 -4.429688 5.59375 -3.921875 C 6.09375 -3.410156 6.722656 -3.15625 7.484375 -3.15625 C 8.535156 -3.15625 9.332031 -3.695312 9.875 -4.78125 L 13.140625 -3.109375 C 12.722656 -2.066406 12.019531 -1.253906 11.03125 -0.671875 C 10.039062 -0.0859375 8.863281 0.203125 7.5 0.203125 Z M 7.5 0.203125 "/></g></g></g><g fill="#1a1444" fill-opacity="1"><g transform="translate(209.920687, 77.561437)"><g/></g></g><g fill="#1a1444" fill-opacity="1"><g transform="translate(216.379723, 77.561437)"><g><path d="M 17.03125 -12.234375 C 18.507812 -12.234375 19.6875 -11.785156 20.5625 -10.890625 C 21.445312 -10.003906 21.890625 -8.671875 21.890625 -6.890625 L 21.890625 0 L 17.671875 0 L 17.671875 -6.1875 C 17.671875 -7.03125 17.507812 -7.648438 17.1875 -8.046875 C 16.875 -8.453125 16.429688 -8.65625 15.859375 -8.65625 C 15.210938 -8.65625 14.695312 -8.429688 14.3125 -7.984375 C 13.9375 -7.546875 13.75 -6.875 13.75 -5.96875 L 13.75 0 L 9.53125 0 L 9.53125 -6.1875 C 9.53125 -7.832031 8.921875 -8.65625 7.703125 -8.65625 C 7.054688 -8.65625 6.539062 -8.429688 6.15625 -7.984375 C 5.769531 -7.546875 5.578125 -6.875 5.578125 -5.96875 L 5.578125 0 L 1.359375 0 L 1.359375 -12.03125 L 5.375 -12.03125 L 5.375 -10.765625 C 5.820312 -11.253906 6.347656 -11.617188 6.953125 -11.859375 C 7.566406 -12.109375 8.238281 -12.234375 8.96875 -12.234375 C 9.8125 -12.234375 10.566406 -12.078125 11.234375 -11.765625 C 11.898438 -11.453125 12.441406 -10.976562 12.859375 -10.34375 C 13.328125 -10.945312 13.921875 -11.410156 14.640625 -11.734375 C 15.367188 -12.066406 16.164062 -12.234375 17.03125 -12.234375 Z M 17.03125 -12.234375 "/></g></g></g><g fill="#1a1444" fill-opacity="1"><g transform="translate(239.574537, 77.561437)"><g><path d="M 12.484375 -10.296875 C 13.023438 -9.753906 13.441406 -9.117188 13.734375 -8.390625 C 14.035156 -7.671875 14.1875 -6.890625 14.1875 -6.046875 C 14.1875 -4.835938 13.894531 -3.757812 13.3125 -2.8125 C 12.726562 -1.875 11.921875 -1.132812 10.890625 -0.59375 C 9.859375 -0.0625 8.691406 0.203125 7.390625 0.203125 C 6.085938 0.203125 4.921875 -0.0625 3.890625 -0.59375 C 2.867188 -1.132812 2.0625 -1.875 1.46875 -2.8125 C 0.882812 -3.757812 0.59375 -4.835938 0.59375 -6.046875 C 0.59375 -7.242188 0.882812 -8.3125 1.46875 -9.25 C 2.0625 -10.1875 2.875 -10.914062 3.90625 -11.4375 C 4.945312 -11.96875 6.125 -12.234375 7.4375 -12.234375 C 7.75 -12.234375 8.289062 -12.195312 9.0625 -12.125 C 9.53125 -12.0625 9.863281 -12.03125 10.0625 -12.03125 C 10.476562 -12.03125 10.796875 -12.15625 11.015625 -12.40625 C 11.234375 -12.65625 11.34375 -13 11.34375 -13.4375 C 11.34375 -13.90625 11.179688 -14.332031 10.859375 -14.71875 L 13.28125 -15.609375 C 13.8125 -14.898438 14.078125 -14.113281 14.078125 -13.25 C 14.078125 -12.613281 13.9375 -12.039062 13.65625 -11.53125 C 13.375 -11.019531 12.984375 -10.609375 12.484375 -10.296875 Z M 7.390625 -3.15625 C 8.128906 -3.15625 8.734375 -3.410156 9.203125 -3.921875 C 9.679688 -4.429688 9.921875 -5.140625 9.921875 -6.046875 C 9.921875 -6.929688 9.679688 -7.625 9.203125 -8.125 C 8.734375 -8.625 8.128906 -8.875 7.390625 -8.875 C 6.648438 -8.875 6.039062 -8.625 5.5625 -8.125 C 5.09375 -7.625 4.859375 -6.929688 4.859375 -6.046875 C 4.859375 -5.140625 5.09375 -4.429688 5.5625 -3.921875 C 6.039062 -3.410156 6.648438 -3.15625 7.390625 -3.15625 Z M 7.390625 -3.15625 "/></g></g></g><g fill="#1a1444" fill-opacity="1"><g transform="translate(254.357072, 77.561437)"><g/></g></g><g fill="#1a1444" fill-opacity="1"><g transform="translate(260.816107, 77.561437)"><g><path d="M 7.5 0.203125 C 6.164062 0.203125 4.972656 -0.0625 3.921875 -0.59375 C 2.878906 -1.132812 2.0625 -1.875 1.46875 -2.8125 C 0.882812 -3.757812 0.59375 -4.835938 0.59375 -6.046875 C 0.59375 -7.242188 0.882812 -8.3125 1.46875 -9.25 C 2.0625 -10.1875 2.878906 -10.914062 3.921875 -11.4375 C 4.972656 -11.96875 6.164062 -12.234375 7.5 -12.234375 C 8.863281 -12.234375 10.039062 -11.941406 11.03125 -11.359375 C 12.019531 -10.773438 12.722656 -9.960938 13.140625 -8.921875 L 9.875 -7.265625 C 9.332031 -8.335938 8.535156 -8.875 7.484375 -8.875 C 6.722656 -8.875 6.09375 -8.625 5.59375 -8.125 C 5.101562 -7.625 4.859375 -6.929688 4.859375 -6.046875 C 4.859375 -5.140625 5.101562 -4.429688 5.59375 -3.921875 C 6.09375 -3.410156 6.722656 -3.15625 7.484375 -3.15625 C 8.535156 -3.15625 9.332031 -3.695312 9.875 -4.78125 L 13.140625 -3.109375 C 12.722656 -2.066406 12.019531 -1.253906 11.03125 -0.671875 C 10.039062 -0.0859375 8.863281 0.203125 7.5 0.203125 Z M 7.5 0.203125 "/></g></g></g><g fill="#1a1444" fill-opacity="1"><g transform="translate(274.200282, 77.561437)"><g><path d="M 14.015625 -12.03125 L 14.015625 0 L 9.984375 0 L 9.984375 -1.28125 C 9.546875 -0.800781 9.015625 -0.429688 8.390625 -0.171875 C 7.765625 0.078125 7.109375 0.203125 6.421875 0.203125 C 4.859375 0.203125 3.613281 -0.253906 2.6875 -1.171875 C 1.769531 -2.085938 1.3125 -3.46875 1.3125 -5.3125 L 1.3125 -12.03125 L 5.53125 -12.03125 L 5.53125 -6 C 5.53125 -5.09375 5.695312 -4.429688 6.03125 -4.015625 C 6.375 -3.597656 6.875 -3.390625 7.53125 -3.390625 C 8.195312 -3.390625 8.738281 -3.625 9.15625 -4.09375 C 9.582031 -4.5625 9.796875 -5.273438 9.796875 -6.234375 L 9.796875 -12.03125 Z M 7.171875 -14.546875 C 7.578125 -14.734375 7.859375 -14.929688 8.015625 -15.140625 C 8.179688 -15.347656 8.265625 -15.578125 8.265625 -15.828125 C 8.265625 -16.109375 8.171875 -16.328125 7.984375 -16.484375 C 7.804688 -16.640625 7.566406 -16.71875 7.265625 -16.71875 C 6.835938 -16.71875 6.410156 -16.570312 5.984375 -16.28125 L 5.109375 -17.921875 C 5.453125 -18.179688 5.851562 -18.378906 6.3125 -18.515625 C 6.769531 -18.660156 7.242188 -18.734375 7.734375 -18.734375 C 8.585938 -18.734375 9.285156 -18.492188 9.828125 -18.015625 C 10.367188 -17.546875 10.640625 -16.9375 10.640625 -16.1875 C 10.640625 -14.882812 9.914062 -13.90625 8.46875 -13.25 Z M 7.171875 -14.546875 "/></g></g></g><g fill="#1a1444" fill-opacity="1"><g transform="translate(289.559898, 77.561437)"><g><path d="M 6.484375 -12.234375 C 8.484375 -12.234375 10.007812 -11.773438 11.0625 -10.859375 C 12.113281 -9.953125 12.640625 -8.5625 12.640625 -6.6875 L 12.640625 0 L 8.703125 0 L 8.703125 -1.546875 C 8.097656 -0.378906 6.914062 0.203125 5.15625 0.203125 C 4.21875 0.203125 3.40625 0.0390625 2.71875 -0.28125 C 2.039062 -0.613281 1.53125 -1.054688 1.1875 -1.609375 C 0.84375 -2.160156 0.671875 -2.796875 0.671875 -3.515625 C 0.671875 -4.648438 1.101562 -5.53125 1.96875 -6.15625 C 2.84375 -6.789062 4.191406 -7.109375 6.015625 -7.109375 L 8.421875 -7.109375 C 8.335938 -8.378906 7.484375 -9.015625 5.859375 -9.015625 C 5.285156 -9.015625 4.703125 -8.921875 4.109375 -8.734375 C 3.515625 -8.546875 3.007812 -8.289062 2.59375 -7.96875 L 1.171875 -10.828125 C 1.835938 -11.273438 2.648438 -11.617188 3.609375 -11.859375 C 4.566406 -12.109375 5.523438 -12.234375 6.484375 -12.234375 Z M 6.328125 -2.46875 C 6.816406 -2.46875 7.242188 -2.582031 7.609375 -2.8125 C 7.984375 -3.050781 8.253906 -3.398438 8.421875 -3.859375 L 8.421875 -4.90625 L 6.59375 -4.90625 C 5.363281 -4.90625 4.75 -4.5 4.75 -3.6875 C 4.75 -3.3125 4.890625 -3.015625 5.171875 -2.796875 C 5.453125 -2.578125 5.835938 -2.46875 6.328125 -2.46875 Z M 6.328125 -2.46875 "/></g></g></g><g fill="#1a1444" fill-opacity="1"><g transform="translate(303.498982, 77.561437)"><g/></g></g><g fill="#1a1444" fill-opacity="1"><g transform="translate(309.958018, 77.561437)"><g><path d="M 8.921875 -12.234375 C 10.015625 -12.234375 11.007812 -11.976562 11.90625 -11.46875 C 12.800781 -10.96875 13.507812 -10.25 14.03125 -9.3125 C 14.5625 -8.375 14.828125 -7.285156 14.828125 -6.046875 C 14.828125 -4.796875 14.5625 -3.695312 14.03125 -2.75 C 13.507812 -1.800781 12.800781 -1.070312 11.90625 -0.5625 C 11.007812 -0.0507812 10.015625 0.203125 8.921875 0.203125 C 7.335938 0.203125 6.15625 -0.265625 5.375 -1.203125 L 5.375 0 L 1.359375 0 L 1.359375 -16.46875 L 5.578125 -16.46875 L 5.578125 -10.984375 C 6.390625 -11.816406 7.503906 -12.234375 8.921875 -12.234375 Z M 8.03125 -3.15625 C 8.769531 -3.15625 9.375 -3.410156 9.84375 -3.921875 C 10.320312 -4.429688 10.5625 -5.140625 10.5625 -6.046875 C 10.5625 -6.929688 10.320312 -7.625 9.84375 -8.125 C 9.375 -8.625 8.769531 -8.875 8.03125 -8.875 C 7.289062 -8.875 6.679688 -8.625 6.203125 -8.125 C 5.734375 -7.625 5.5 -6.929688 5.5 -6.046875 C 5.5 -5.140625 5.734375 -4.429688 6.203125 -3.921875 C 6.679688 -3.410156 7.289062 -3.15625 8.03125 -3.15625 Z M 8.03125 -3.15625 "/></g></g></g><g fill="#1a1444" fill-opacity="1"><g transform="translate(325.384243, 77.561437)"><g><path d="M 6.484375 -12.234375 C 8.484375 -12.234375 10.007812 -11.773438 11.0625 -10.859375 C 12.113281 -9.953125 12.640625 -8.5625 12.640625 -6.6875 L 12.640625 0 L 8.703125 0 L 8.703125 -1.546875 C 8.097656 -0.378906 6.914062 0.203125 5.15625 0.203125 C 4.21875 0.203125 3.40625 0.0390625 2.71875 -0.28125 C 2.039062 -0.613281 1.53125 -1.054688 1.1875 -1.609375 C 0.84375 -2.160156 0.671875 -2.796875 0.671875 -3.515625 C 0.671875 -4.648438 1.101562 -5.53125 1.96875 -6.15625 C 2.84375 -6.789062 4.191406 -7.109375 6.015625 -7.109375 L 8.421875 -7.109375 C 8.335938 -8.378906 7.484375 -9.015625 5.859375 -9.015625 C 5.285156 -9.015625 4.703125 -8.921875 4.109375 -8.734375 C 3.515625 -8.546875 3.007812 -8.289062 2.59375 -7.96875 L 1.171875 -10.828125 C 1.835938 -11.273438 2.648438 -11.617188 3.609375 -11.859375 C 4.566406 -12.109375 5.523438 -12.234375 6.484375 -12.234375 Z M 6.328125 -2.46875 C 6.816406 -2.46875 7.242188 -2.582031 7.609375 -2.8125 C 7.984375 -3.050781 8.253906 -3.398438 8.421875 -3.859375 L 8.421875 -4.90625 L 6.59375 -4.90625 C 5.363281 -4.90625 4.75 -4.5 4.75 -3.6875 C 4.75 -3.3125 4.890625 -3.015625 5.171875 -2.796875 C 5.453125 -2.578125 5.835938 -2.46875 6.328125 -2.46875 Z M 6.578125 4.84375 C 6.066406 4.84375 5.644531 4.6875 5.3125 4.375 C 4.976562 4.0625 4.8125 3.644531 4.8125 3.125 C 4.8125 2.613281 4.976562 2.191406 5.3125 1.859375 C 5.644531 1.535156 6.066406 1.375 6.578125 1.375 C 7.078125 1.375 7.492188 1.535156 7.828125 1.859375 C 8.160156 2.191406 8.328125 2.613281 8.328125 3.125 C 8.328125 3.644531 8.160156 4.0625 7.828125 4.375 C 7.492188 4.6875 7.078125 4.84375 6.578125 4.84375 Z M 6.578125 4.84375 "/></g></g></g><g fill="#1a1444" fill-opacity="1"><g transform="translate(339.323305, 77.561437)"><g><path d="M 9.1875 -12.234375 C 10.6875 -12.234375 11.890625 -11.785156 12.796875 -10.890625 C 13.710938 -10.003906 14.171875 -8.671875 14.171875 -6.890625 L 14.171875 0 L 9.953125 0 L 9.953125 -6.1875 C 9.953125 -7.832031 9.289062 -8.65625 7.96875 -8.65625 C 7.25 -8.65625 6.671875 -8.414062 6.234375 -7.9375 C 5.796875 -7.46875 5.578125 -6.757812 5.578125 -5.8125 L 5.578125 0 L 1.359375 0 L 1.359375 -12.03125 L 5.375 -12.03125 L 5.375 -10.71875 C 5.84375 -11.207031 6.398438 -11.582031 7.046875 -11.84375 C 7.703125 -12.101562 8.414062 -12.234375 9.1875 -12.234375 Z M 9.1875 -12.234375 "/></g></g></g><g clip-path="url(#83d5ef3d01)"><path fill="#0048e8" d="M 14.625 36.261719 C 17.253906 36.953125 19.980469 37.300781 22.808594 37.300781 C 26.085938 37.300781 28.914062 36.804688 31.246094 35.8125 C 33.527344 34.820312 35.261719 33.433594 36.453125 31.746094 C 37.59375 30.058594 38.191406 28.171875 38.191406 26.089844 C 38.191406 23.707031 37.546875 21.773438 36.253906 20.382812 C 34.964844 18.992188 33.476562 17.953125 31.742188 17.308594 C 30.003906 16.664062 27.820312 16.066406 25.191406 15.472656 C 22.808594 14.976562 21.121094 14.527344 20.082031 14.03125 C 18.988281 13.585938 18.492188 12.890625 18.492188 11.949219 C 18.492188 11.054688 18.941406 10.3125 19.832031 9.714844 C 20.726562 9.121094 22.117188 8.824219 24.101562 8.824219 C 27.175781 8.824219 30.402344 9.714844 33.726562 11.503906 L 36.75 4.207031 C 35.066406 3.214844 33.082031 2.472656 30.898438 1.976562 C 28.664062 1.480469 26.433594 1.183594 24.148438 1.183594 C 20.777344 1.183594 17.949219 1.679688 15.664062 2.671875 C 13.382812 3.664062 11.644531 5.050781 10.503906 6.738281 C 9.3125 8.425781 8.769531 10.359375 8.769531 12.445312 C 8.769531 14.875 9.363281 16.8125 10.652344 18.199219 C 11.894531 19.640625 13.382812 20.679688 15.167969 21.324219 C 16.90625 21.972656 19.089844 22.566406 21.71875 23.113281 C 24.101562 23.65625 25.785156 24.152344 26.878906 24.648438 C 27.96875 25.144531 28.515625 25.839844 28.515625 26.832031 C 28.515625 28.71875 26.628906 29.660156 22.859375 29.660156 C 20.875 29.660156 18.839844 29.363281 16.804688 28.71875 C 14.722656 28.125 12.9375 27.28125 11.398438 26.238281 L 8.171875 33.480469 C 9.8125 34.671875 11.945312 35.566406 14.625 36.261719 Z M 14.625 36.261719 " fill-opacity="1" fill-rule="nonzero"/></g><path fill="#0048e8" d="M 47.941406 35.269531 C 50.222656 36.457031 52.851562 37.054688 55.730469 37.054688 C 58.605469 37.054688 61.238281 36.457031 63.570312 35.269531 C 65.851562 34.078125 67.6875 32.441406 68.976562 30.304688 C 70.265625 28.222656 70.910156 25.792969 70.910156 23.113281 C 70.910156 20.433594 70.265625 18.050781 68.976562 15.96875 C 67.6875 13.882812 65.851562 12.246094 63.570312 11.054688 C 61.238281 9.863281 58.605469 9.269531 55.730469 9.269531 C 52.800781 9.269531 50.171875 9.863281 47.890625 11.054688 C 45.609375 12.246094 43.773438 13.882812 42.480469 15.96875 C 41.191406 18.101562 40.546875 20.484375 40.546875 23.113281 C 40.546875 25.792969 41.191406 28.222656 42.480469 30.304688 C 43.773438 32.441406 45.609375 34.078125 47.941406 35.269531 Z M 59.796875 27.875 C 58.707031 29.015625 57.367188 29.5625 55.730469 29.5625 C 54.042969 29.5625 52.703125 29.015625 51.660156 27.875 C 50.570312 26.734375 50.074219 25.144531 50.074219 23.113281 C 50.074219 21.128906 50.570312 19.589844 51.660156 18.449219 C 52.703125 17.355469 54.042969 16.761719 55.730469 16.761719 C 57.367188 16.761719 58.707031 17.355469 59.796875 18.449219 C 60.839844 19.589844 61.386719 21.128906 61.386719 23.113281 C 61.386719 25.144531 60.839844 26.734375 59.796875 27.875 Z M 59.796875 27.875 " fill-opacity="1" fill-rule="nonzero"/><path fill="#0048e8" d="M 100.832031 12.246094 C 98.796875 10.261719 96.117188 9.269531 92.792969 9.269531 C 91.054688 9.269531 89.46875 9.566406 88.03125 10.164062 C 86.542969 10.757812 85.300781 11.550781 84.257812 12.644531 L 84.257812 9.714844 L 75.277344 9.714844 L 75.277344 36.609375 L 84.707031 36.609375 L 84.707031 23.609375 C 84.707031 21.523438 85.152344 19.9375 86.144531 18.84375 C 87.136719 17.804688 88.425781 17.257812 90.0625 17.257812 C 92.992188 17.257812 94.480469 19.09375 94.480469 22.765625 L 94.480469 36.609375 L 103.90625 36.609375 L 103.90625 21.226562 C 103.90625 17.257812 102.863281 14.230469 100.832031 12.246094 Z M 100.832031 12.246094 " fill-opacity="1" fill-rule="nonzero"/><path fill="#0048e8" d="M 139.089844 9.714844 L 130.109375 9.714844 L 130.109375 12.992188 C 128.324219 10.507812 125.496094 9.269531 121.675781 9.269531 C 119.292969 9.269531 117.0625 9.816406 115.078125 10.90625 C 113.042969 12 111.453125 13.488281 110.265625 15.472656 C 109.074219 17.457031 108.476562 19.6875 108.476562 22.21875 C 108.476562 24.800781 109.074219 27.082031 110.265625 29.066406 C 111.453125 31.050781 113.042969 32.539062 115.078125 33.628906 C 117.0625 34.722656 119.292969 35.21875 121.675781 35.21875 C 125.148438 35.21875 127.828125 34.175781 129.664062 32.042969 L 129.664062 32.9375 C 129.664062 35.121094 129.066406 36.707031 127.925781 37.796875 C 126.734375 38.890625 124.949219 39.4375 122.46875 39.4375 C 120.832031 39.4375 119.195312 39.1875 117.507812 38.691406 C 115.820312 38.195312 114.480469 37.449219 113.390625 36.558594 L 109.964844 43.15625 C 111.554688 44.347656 113.539062 45.191406 115.871094 45.785156 C 118.152344 46.382812 120.632812 46.679688 123.3125 46.679688 C 128.375 46.679688 132.292969 45.4375 135.023438 42.957031 C 137.703125 40.476562 139.089844 36.707031 139.089844 31.695312 Z M 128.074219 26.1875 C 126.984375 27.230469 125.59375 27.726562 123.90625 27.726562 C 122.222656 27.726562 120.78125 27.230469 119.691406 26.1875 C 118.550781 25.195312 118.003906 23.855469 118.003906 22.21875 C 118.003906 20.632812 118.550781 19.292969 119.640625 18.300781 C 120.734375 17.308594 122.171875 16.761719 123.90625 16.761719 C 125.59375 16.761719 127.035156 17.308594 128.125 18.300781 C 129.21875 19.292969 129.761719 20.632812 129.761719 22.21875 C 129.761719 23.855469 129.167969 25.195312 128.074219 26.1875 Z M 128.074219 26.1875 " fill-opacity="1" fill-rule="nonzero"/><path fill="#0048e8" d="M 145.59375 36.609375 L 155.21875 36.609375 L 155.21875 30.753906 L 145.59375 18.496094 Z M 169.011719 1.875 L 169.011719 8.179688 L 178.636719 19.789062 L 178.636719 1.875 Z M 169.011719 20.382812 L 153.679688 1.875 L 145.59375 1.875 L 145.59375 6.492188 L 155.21875 18.101562 L 170.550781 36.609375 L 178.636719 36.609375 L 178.636719 32.589844 L 169.011719 20.332031 Z M 169.011719 20.382812 " fill-opacity="1" fill-rule="nonzero"/><path fill="#0048e8" d="M 214.097656 9.714844 L 205.117188 9.714844 L 205.117188 12.992188 C 203.328125 10.507812 200.5 9.269531 196.679688 9.269531 C 194.300781 9.269531 192.066406 9.816406 190.082031 10.90625 C 188.046875 12 186.460938 13.488281 185.269531 15.472656 C 184.078125 17.457031 183.484375 19.6875 183.484375 22.21875 C 183.484375 24.800781 184.078125 27.082031 185.269531 29.066406 C 186.460938 31.050781 188.046875 32.539062 190.082031 33.628906 C 192.066406 34.722656 194.300781 35.21875 196.679688 35.21875 C 200.152344 35.21875 202.832031 34.175781 204.667969 32.042969 L 204.667969 32.9375 C 204.667969 35.121094 204.074219 36.707031 202.933594 37.796875 C 201.742188 38.890625 199.957031 39.4375 197.472656 39.4375 C 195.835938 39.4375 194.199219 39.1875 192.511719 38.691406 C 190.824219 38.195312 189.484375 37.449219 188.394531 36.558594 L 184.972656 43.15625 C 186.558594 44.347656 188.542969 45.191406 190.875 45.785156 C 193.15625 46.382812 195.636719 46.679688 198.316406 46.679688 C 203.378906 46.679688 207.296875 45.4375 210.027344 42.957031 C 212.707031 40.476562 214.097656 36.707031 214.097656 31.695312 Z M 203.082031 26.1875 C 201.988281 27.230469 200.601562 27.726562 198.914062 27.726562 C 197.226562 27.726562 195.789062 27.230469 194.695312 26.1875 C 193.554688 25.195312 193.007812 23.855469 193.007812 22.21875 C 193.007812 20.632812 193.554688 19.292969 194.644531 18.300781 C 195.738281 17.308594 197.175781 16.761719 198.914062 16.761719 C 200.601562 16.761719 202.039062 17.308594 203.128906 18.300781 C 204.222656 19.292969 204.769531 20.632812 204.769531 22.21875 C 204.769531 23.855469 204.171875 25.195312 203.082031 26.1875 Z M 203.082031 26.1875 " fill-opacity="1" fill-rule="nonzero"/><path fill="#0048e8" d="M 248.433594 9.714844 L 239.007812 9.714844 L 239.007812 22.664062 C 239.007812 24.847656 238.511719 26.4375 237.566406 27.476562 C 236.625 28.519531 235.433594 29.015625 233.945312 29.015625 C 232.457031 29.015625 231.367188 28.570312 230.621094 27.628906 C 229.828125 26.734375 229.480469 25.246094 229.480469 23.210938 L 229.480469 9.714844 L 220.054688 9.714844 L 220.054688 24.75 C 220.054688 28.867188 221.046875 31.945312 223.128906 33.976562 C 225.214844 36.0625 227.992188 37.054688 231.464844 37.054688 C 233.003906 37.054688 234.492188 36.804688 235.882812 36.210938 C 237.269531 35.664062 238.460938 34.820312 239.453125 33.730469 L 239.453125 36.609375 L 248.433594 36.609375 Z M 242.378906 9.714844 L 242.378906 15.667969 L 243.71875 15.667969 C 246.648438 15.667969 248.929688 14.925781 250.617188 13.386719 C 252.253906 11.898438 253.097656 9.765625 253.097656 6.988281 C 253.097656 4.953125 252.503906 3.214844 251.359375 1.777344 L 245.902344 3.710938 C 246.199219 4.109375 246.398438 4.554688 246.597656 5.050781 C 246.796875 5.546875 246.894531 6.09375 246.894531 6.589844 C 246.894531 7.484375 246.597656 8.226562 246.050781 8.824219 C 245.507812 9.417969 244.863281 9.714844 244.066406 9.714844 Z M 242.378906 9.714844 " fill-opacity="1" fill-rule="nonzero"/><path fill="#0048e8" d="M 254.3125 35.464844 C 255.402344 36.558594 256.742188 37.054688 258.328125 37.054688 C 259.917969 37.054688 261.257812 36.558594 262.347656 35.464844 C 263.441406 34.425781 263.984375 33.085938 263.984375 31.449219 C 263.984375 29.808594 263.441406 28.46875 262.398438 27.429688 C 261.308594 26.4375 259.96875 25.890625 258.328125 25.890625 C 256.691406 25.890625 255.351562 26.4375 254.261719 27.429688 C 253.167969 28.46875 252.671875 29.808594 252.671875 31.449219 C 252.671875 33.085938 253.21875 34.425781 254.3125 35.464844 Z M 254.3125 35.464844 " fill-opacity="1" fill-rule="nonzero"/><path fill="#0048e8" d="M 285.480469 36.609375 L 296.246094 36.609375 L 285.976562 22.816406 L 295.898438 9.714844 L 285.925781 9.714844 L 280.964844 16.511719 L 276.203125 9.714844 L 265.582031 9.714844 L 275.507812 23.160156 L 265.285156 36.609375 L 275.507812 36.609375 L 280.667969 29.5625 Z M 285.480469 36.609375 " fill-opacity="1" fill-rule="nonzero"/><path fill="#0048e8" d="M 326.007812 9.714844 L 317.027344 9.714844 L 310.378906 26.140625 L 303.78125 9.714844 L 294.105469 9.714844 L 305.617188 36.953125 C 305.21875 37.75 304.722656 38.34375 304.128906 38.691406 C 303.53125 39.089844 302.835938 39.238281 301.945312 39.238281 C 301.152344 39.238281 300.40625 39.136719 299.660156 38.839844 C 298.917969 38.542969 298.273438 38.144531 297.777344 37.648438 L 294.5 44.25 C 295.394531 44.992188 296.535156 45.589844 297.976562 46.035156 C 299.414062 46.480469 300.851562 46.679688 302.292969 46.679688 C 305.070312 46.679688 307.453125 46.035156 309.4375 44.695312 C 311.371094 43.355469 313.007812 41.023438 314.398438 37.699219 Z M 326.007812 9.714844 " fill-opacity="1" fill-rule="nonzero"/><path fill="#0048e8" d="M 351.332031 29.5625 L 338.382812 29.5625 L 350.835938 15.222656 L 350.835938 9.714844 L 326.871094 9.714844 L 326.871094 16.710938 L 338.976562 16.710938 L 326.523438 31.050781 L 326.523438 36.609375 L 351.332031 36.609375 Z M 351.332031 29.5625 " fill-opacity="1" fill-rule="nonzero"/><g clip-path="url(#27d7b44bad)"><path fill="#1a1444" d="M 14.140625 35.324219 C 16.773438 36.019531 19.5 36.367188 22.328125 36.367188 C 25.601562 36.367188 28.429688 35.871094 30.761719 34.878906 C 33.046875 33.886719 34.78125 32.496094 35.972656 30.808594 C 37.113281 29.121094 37.710938 27.238281 37.710938 25.152344 C 37.710938 22.769531 37.0625 20.835938 35.773438 19.445312 C 34.484375 18.058594 32.996094 17.015625 31.257812 16.371094 C 29.523438 15.726562 27.339844 15.128906 24.710938 14.535156 C 22.328125 14.039062 20.640625 13.59375 19.601562 13.097656 C 18.507812 12.648438 18.011719 11.953125 18.011719 11.011719 C 18.011719 10.117188 18.457031 9.375 19.351562 8.78125 C 20.246094 8.183594 21.632812 7.886719 23.617188 7.886719 C 26.695312 7.886719 29.917969 8.78125 33.242188 10.566406 L 36.269531 3.273438 C 34.582031 2.28125 32.597656 1.535156 30.414062 1.039062 C 28.183594 0.542969 25.949219 0.246094 23.667969 0.246094 C 20.292969 0.246094 17.464844 0.742188 15.183594 1.734375 C 12.902344 2.726562 11.164062 4.117188 10.023438 5.800781 C 8.832031 7.488281 8.289062 9.425781 8.289062 11.507812 C 8.289062 13.9375 8.882812 15.875 10.171875 17.261719 C 11.414062 18.703125 12.902344 19.746094 14.6875 20.390625 C 16.425781 21.035156 18.605469 21.628906 21.238281 22.175781 C 23.617188 22.722656 25.304688 23.21875 26.398438 23.714844 C 27.488281 24.210938 28.035156 24.90625 28.035156 25.898438 C 28.035156 27.78125 26.148438 28.726562 22.378906 28.726562 C 20.394531 28.726562 18.359375 28.425781 16.324219 27.78125 C 14.242188 27.1875 12.453125 26.34375 10.917969 25.300781 L 7.691406 32.546875 C 9.328125 33.734375 11.460938 34.628906 14.140625 35.324219 Z M 14.140625 35.324219 " fill-opacity="1" fill-rule="nonzero"/></g><path fill="#1a1444" d="M 47.457031 34.332031 C 49.742188 35.523438 52.371094 36.117188 55.246094 36.117188 C 58.125 36.117188 60.753906 35.523438 63.085938 34.332031 C 65.371094 33.140625 67.207031 31.503906 68.496094 29.371094 C 69.785156 27.285156 70.429688 24.855469 70.429688 22.175781 C 70.429688 19.496094 69.785156 17.113281 68.496094 15.03125 C 67.207031 12.945312 65.371094 11.308594 63.085938 10.117188 C 60.753906 8.929688 58.125 8.332031 55.246094 8.332031 C 52.320312 8.332031 49.691406 8.929688 47.410156 10.117188 C 45.125 11.308594 43.289062 12.945312 42 15.03125 C 40.710938 17.164062 40.066406 19.546875 40.066406 22.175781 C 40.066406 24.855469 40.710938 27.285156 42 29.371094 C 43.289062 31.503906 45.125 33.140625 47.457031 34.332031 Z M 59.316406 26.9375 C 58.226562 28.078125 56.886719 28.625 55.246094 28.625 C 53.5625 28.625 52.222656 28.078125 51.179688 26.9375 C 50.085938 25.796875 49.589844 24.210938 49.589844 22.175781 C 49.589844 20.191406 50.085938 18.652344 51.179688 17.511719 C 52.222656 16.421875 53.5625 15.824219 55.246094 15.824219 C 56.886719 15.824219 58.226562 16.421875 59.316406 17.511719 C 60.359375 18.652344 60.902344 20.191406 60.902344 22.175781 C 60.902344 24.210938 60.359375 25.796875 59.316406 26.9375 Z M 59.316406 26.9375 " fill-opacity="1" fill-rule="nonzero"/><path fill="#1a1444" d="M 100.347656 11.308594 C 98.316406 9.324219 95.636719 8.332031 92.3125 8.332031 C 90.574219 8.332031 88.988281 8.628906 87.546875 9.226562 C 86.058594 9.820312 84.820312 10.613281 83.777344 11.707031 L 83.777344 8.78125 L 74.796875 8.78125 L 74.796875 35.671875 L 84.222656 35.671875 L 84.222656 22.671875 C 84.222656 20.585938 84.671875 19 85.664062 17.910156 C 86.65625 16.867188 87.945312 16.320312 89.582031 16.320312 C 92.511719 16.320312 94 18.15625 94 21.828125 L 94 35.671875 L 103.425781 35.671875 L 103.425781 20.289062 C 103.425781 16.320312 102.382812 13.292969 100.347656 11.308594 Z M 100.347656 11.308594 " fill-opacity="1" fill-rule="nonzero"/><path fill="#1a1444" d="M 138.609375 8.78125 L 129.628906 8.78125 L 129.628906 12.054688 C 127.84375 9.574219 125.015625 8.332031 121.195312 8.332031 C 118.8125 8.332031 116.578125 8.878906 114.59375 9.96875 C 112.5625 11.0625 110.972656 12.550781 109.78125 14.535156 C 108.589844 16.519531 107.996094 18.753906 107.996094 21.28125 C 107.996094 23.863281 108.589844 26.144531 109.78125 28.128906 C 110.972656 30.113281 112.5625 31.601562 114.59375 32.695312 C 116.578125 33.785156 118.8125 34.28125 121.195312 34.28125 C 124.667969 34.28125 127.347656 33.238281 129.183594 31.105469 L 129.183594 32 C 129.183594 34.183594 128.585938 35.769531 127.445312 36.863281 C 126.253906 37.953125 124.46875 38.5 121.988281 38.5 C 120.351562 38.5 118.714844 38.25 117.027344 37.753906 C 115.339844 37.257812 114 36.515625 112.910156 35.621094 L 109.484375 42.21875 C 111.074219 43.410156 113.058594 44.253906 115.390625 44.851562 C 117.671875 45.445312 120.152344 45.742188 122.832031 45.742188 C 127.890625 45.742188 131.8125 44.503906 134.539062 42.023438 C 137.21875 39.542969 138.609375 35.769531 138.609375 30.757812 Z M 127.59375 25.25 C 126.503906 26.292969 125.113281 26.789062 123.425781 26.789062 C 121.738281 26.789062 120.300781 26.292969 119.210938 25.25 C 118.066406 24.257812 117.523438 22.917969 117.523438 21.28125 C 117.523438 19.695312 118.066406 18.355469 119.160156 17.363281 C 120.25 16.371094 121.691406 15.824219 123.425781 15.824219 C 125.113281 15.824219 126.550781 16.371094 127.644531 17.363281 C 128.734375 18.355469 129.28125 19.695312 129.28125 21.28125 C 129.28125 22.917969 128.6875 24.257812 127.59375 25.25 Z M 127.59375 25.25 " fill-opacity="1" fill-rule="nonzero"/><path fill="#1a1444" d="M 145.113281 35.671875 L 154.738281 35.671875 L 154.738281 29.816406 L 145.113281 17.5625 Z M 168.53125 0.941406 L 168.53125 7.242188 L 178.15625 18.851562 L 178.15625 0.941406 Z M 168.53125 19.445312 L 153.199219 0.941406 L 145.113281 0.941406 L 145.113281 5.554688 L 154.738281 17.164062 L 170.070312 35.671875 L 178.15625 35.671875 L 178.15625 31.652344 L 168.53125 19.398438 Z M 168.53125 19.445312 " fill-opacity="1" fill-rule="nonzero"/><path fill="#1a1444" d="M 213.613281 8.78125 L 204.632812 8.78125 L 204.632812 12.054688 C 202.847656 9.574219 200.019531 8.332031 196.199219 8.332031 C 193.816406 8.332031 191.585938 8.878906 189.601562 9.96875 C 187.566406 11.0625 185.976562 12.550781 184.789062 14.535156 C 183.597656 16.519531 183 18.753906 183 21.28125 C 183 23.863281 183.597656 26.144531 184.789062 28.128906 C 185.976562 30.113281 187.566406 31.601562 189.601562 32.695312 C 191.585938 33.785156 193.816406 34.28125 196.199219 34.28125 C 199.671875 34.28125 202.351562 33.238281 204.1875 31.105469 L 204.1875 32 C 204.1875 34.183594 203.59375 35.769531 202.449219 36.863281 C 201.261719 37.953125 199.472656 38.5 196.992188 38.5 C 195.355469 38.5 193.71875 38.25 192.03125 37.753906 C 190.34375 37.257812 189.003906 36.515625 187.914062 35.621094 L 184.488281 42.21875 C 186.078125 43.410156 188.0625 44.253906 190.394531 44.851562 C 192.675781 45.445312 195.15625 45.742188 197.835938 45.742188 C 202.898438 45.742188 206.816406 44.503906 209.546875 42.023438 C 212.226562 39.542969 213.613281 35.769531 213.613281 30.757812 Z M 202.601562 25.25 C 201.507812 26.292969 200.117188 26.789062 198.433594 26.789062 C 196.746094 26.789062 195.304688 26.292969 194.214844 25.25 C 193.074219 24.257812 192.527344 22.917969 192.527344 21.28125 C 192.527344 19.695312 193.074219 18.355469 194.164062 17.363281 C 195.257812 16.371094 196.695312 15.824219 198.433594 15.824219 C 200.117188 15.824219 201.558594 16.371094 202.648438 17.363281 C 203.742188 18.355469 204.285156 19.695312 204.285156 21.28125 C 204.285156 22.917969 203.691406 24.257812 202.601562 25.25 Z M 202.601562 25.25 " fill-opacity="1" fill-rule="nonzero"/><path fill="#1a1444" d="M 247.953125 8.78125 L 238.523438 8.78125 L 238.523438 21.730469 C 238.523438 23.914062 238.027344 25.5 237.085938 26.542969 C 236.144531 27.582031 234.953125 28.078125 233.464844 28.078125 C 231.976562 28.078125 230.882812 27.632812 230.140625 26.691406 C 229.347656 25.796875 229 24.308594 229 22.273438 L 229 8.78125 L 219.570312 8.78125 L 219.570312 23.8125 C 219.570312 27.929688 220.5625 31.007812 222.648438 33.042969 C 224.730469 35.125 227.511719 36.117188 230.984375 36.117188 C 232.523438 36.117188 234.011719 35.871094 235.398438 35.273438 C 236.789062 34.726562 237.980469 33.886719 238.972656 32.792969 L 238.972656 35.671875 L 247.953125 35.671875 Z M 241.898438 8.78125 L 241.898438 14.734375 L 243.238281 14.734375 C 246.167969 14.734375 248.449219 13.988281 250.136719 12.449219 C 251.773438 10.960938 252.617188 8.828125 252.617188 6.050781 C 252.617188 4.015625 252.019531 2.28125 250.878906 0.839844 L 245.421875 2.777344 C 245.71875 3.171875 245.917969 3.621094 246.117188 4.117188 C 246.316406 4.613281 246.414062 5.15625 246.414062 5.652344 C 246.414062 6.546875 246.117188 7.289062 245.570312 7.886719 C 245.023438 8.480469 244.378906 8.78125 243.585938 8.78125 Z M 241.898438 8.78125 " fill-opacity="1" fill-rule="nonzero"/><path fill="#1a1444" d="M 253.828125 34.53125 C 254.921875 35.621094 256.261719 36.117188 257.847656 36.117188 C 259.4375 36.117188 260.777344 35.621094 261.867188 34.53125 C 262.957031 33.488281 263.503906 32.148438 263.503906 30.511719 C 263.503906 28.875 262.957031 27.535156 261.917969 26.492188 C 260.824219 25.5 259.484375 24.953125 257.847656 24.953125 C 256.210938 24.953125 254.871094 25.5 253.78125 26.492188 C 252.6875 27.535156 252.191406 28.875 252.191406 30.511719 C 252.191406 32.148438 252.738281 33.488281 253.828125 34.53125 Z M 253.828125 34.53125 " fill-opacity="1" fill-rule="nonzero"/><path fill="#1a1444" d="M 285 35.671875 L 295.765625 35.671875 L 285.496094 21.878906 L 295.417969 8.78125 L 285.445312 8.78125 L 280.484375 15.578125 L 275.71875 8.78125 L 265.101562 8.78125 L 275.027344 22.226562 L 264.804688 35.671875 L 275.027344 35.671875 L 280.1875 28.625 Z M 285 35.671875 " fill-opacity="1" fill-rule="nonzero"/><path fill="#1a1444" d="M 325.527344 8.78125 L 316.546875 8.78125 L 309.898438 25.203125 L 303.296875 8.78125 L 293.625 8.78125 L 305.132812 36.019531 C 304.738281 36.8125 304.242188 37.40625 303.644531 37.753906 C 303.050781 38.152344 302.355469 38.300781 301.464844 38.300781 C 300.667969 38.300781 299.925781 38.203125 299.179688 37.902344 C 298.4375 37.605469 297.792969 37.210938 297.296875 36.714844 L 294.019531 43.3125 C 294.914062 44.054688 296.054688 44.652344 297.492188 45.097656 C 298.933594 45.542969 300.371094 45.742188 301.808594 45.742188 C 304.589844 45.742188 306.96875 45.097656 308.953125 43.757812 C 310.890625 42.417969 312.527344 40.085938 313.917969 36.761719 Z M 325.527344 8.78125 " fill-opacity="1" fill-rule="nonzero"/><path fill="#1a1444" d="M 350.847656 28.625 L 337.898438 28.625 L 350.351562 14.285156 L 350.351562 8.78125 L 326.390625 8.78125 L 326.390625 15.773438 L 338.496094 15.773438 L 326.042969 30.113281 L 326.042969 35.671875 L 350.847656 35.671875 Z M 350.847656 28.625 " fill-opacity="1" fill-rule="nonzero"/></svg>