<?xml version="1.0"?>
<!DOCTYPE svg PUBLIC "-//W3C//DTD SVG 1.1//EN" "http://www.w3.org/Graphics/SVG/1.1/DTD/svg11.dtd">
<svg xmlns="http://www.w3.org/2000/svg" version="1.1" viewBox="0 0 102.34 33.411">
    <g fill="#ffffff">
        <path fill="#FFFFFF" d="M38.259,23.618c0,7.969-2.688,9.793-17.906,9.793h-1.536C1.824,33.411,0,31.971,0,23.618V22.61h7.104v0.768c0,4.177,1.44,4.657,11.233,4.657h1.296c10.369,0,11.617-0.769,11.617-4.225v-0.336c0-3.648-0.864-4.369-12.001-4.369c-17.089,0-18.722-1.584-18.722-9.217V9.505C0.528,1.728,3.264,0,17.33,0h1.632c16.322,0,18.29,1.968,18.29,9.601v0.864h-7.056V9.937c0-3.889-1.2-4.657-10.177-4.657H18.77C8.689,5.28,7.537,5.904,7.537,9.505v0.336c0,3.168,0.624,3.84,12.433,3.84c16.177,0,18.29,1.44,18.29,9.553V23.618z"/>
        <path fill="#FFFFFF" d="M90.387,33.027h-8.688L72.05,8.449h-0.096l-9.697,24.578h-8.785L41.567,0.384H49.2l9.217,26.258h0.096L68.642,0.384h7.152L85.971,26.69h0.096l8.929-26.306h7.345L90.387,33.027z"/>
    </g>
</svg>
