<svg xmlns="http://www.w3.org/2000/svg" xmlns:xlink="http://www.w3.org/1999/xlink" width="468" zoomAndPan="magnify" viewBox="0 0 351 47.25" height="63" preserveAspectRatio="xMidYMid meet" version="1.0"><defs><clipPath id="ccef00fc10"><path d="M 2.742188 0 L 348.257812 0 L 348.257812 46.511719 L 2.742188 46.511719 Z M 2.742188 0 " clip-rule="nonzero"/></clipPath><clipPath id="0f8329fbfb"><path d="M 3.21875 1 L 34 1 L 34 38 L 3.21875 38 Z M 3.21875 1 " clip-rule="nonzero"/></clipPath><clipPath id="1b7e6553f3"><path d="M 102 9 L 134 9 L 134 46.511719 L 102 46.511719 Z M 102 9 " clip-rule="nonzero"/></clipPath><clipPath id="6ef691a379"><path d="M 177 9 L 208 9 L 208 46.511719 L 177 46.511719 Z M 177 9 " clip-rule="nonzero"/></clipPath><clipPath id="3b7a609276"><path d="M 287 9 L 319 9 L 319 46.511719 L 287 46.511719 Z M 287 9 " clip-rule="nonzero"/></clipPath><clipPath id="e31e736726"><path d="M 2.742188 0 L 33 0 L 33 37 L 2.742188 37 Z M 2.742188 0 " clip-rule="nonzero"/></clipPath><clipPath id="54c5d998b3"><path d="M 102 8 L 133 8 L 133 45.773438 L 102 45.773438 Z M 102 8 " clip-rule="nonzero"/></clipPath><clipPath id="435bc9a1a3"><path d="M 176 8 L 208 8 L 208 45.773438 L 176 45.773438 Z M 176 8 " clip-rule="nonzero"/></clipPath><clipPath id="96e178fca8"><path d="M 286 8 L 319 8 L 319 45.773438 L 286 45.773438 Z M 286 8 " clip-rule="nonzero"/></clipPath></defs><g clip-path="url(#ccef00fc10)"><path fill="#ffffff" d="M 2.742188 0 L 348.257812 0 L 348.257812 46.511719 L 2.742188 46.511719 Z M 2.742188 0 " fill-opacity="1" fill-rule="nonzero"/></g><g clip-path="url(#0f8329fbfb)"><path fill="#0048e8" d="M 9.664062 35.984375 C 12.273438 36.671875 14.980469 37.019531 17.789062 37.019531 C 21.039062 37.019531 23.84375 36.527344 26.160156 35.539062 C 28.421875 34.554688 30.148438 33.175781 31.328125 31.503906 C 32.460938 29.828125 33.050781 27.957031 33.050781 25.890625 C 33.050781 23.527344 32.410156 21.605469 31.132812 20.226562 C 29.851562 18.847656 28.375 17.816406 26.652344 17.175781 C 24.925781 16.535156 22.761719 15.945312 20.152344 15.351562 C 17.789062 14.859375 16.113281 14.417969 15.078125 13.925781 C 13.996094 13.480469 13.503906 12.792969 13.503906 11.859375 C 13.503906 10.972656 13.949219 10.234375 14.832031 9.640625 C 15.71875 9.050781 17.097656 8.753906 19.066406 8.753906 C 22.121094 8.753906 25.320312 9.640625 28.621094 11.414062 L 31.625 4.175781 C 29.949219 3.191406 27.980469 2.453125 25.8125 1.960938 C 23.597656 1.46875 21.382812 1.171875 19.117188 1.171875 C 15.769531 1.171875 12.960938 1.664062 10.699219 2.648438 C 8.433594 3.636719 6.710938 5.011719 5.578125 6.6875 C 4.394531 8.363281 3.855469 10.28125 3.855469 12.351562 C 3.855469 14.761719 4.445312 16.683594 5.726562 18.0625 C 6.957031 19.488281 8.433594 20.523438 10.207031 21.164062 C 11.929688 21.804688 14.09375 22.394531 16.703125 22.9375 C 19.066406 23.476562 20.742188 23.96875 21.824219 24.460938 C 22.910156 24.953125 23.449219 25.644531 23.449219 26.628906 C 23.449219 28.5 21.578125 29.433594 17.835938 29.433594 C 15.867188 29.433594 13.847656 29.140625 11.832031 28.5 C 9.761719 27.910156 7.988281 27.070312 6.464844 26.039062 L 3.261719 33.226562 C 4.886719 34.410156 7.003906 35.292969 9.664062 35.984375 Z M 9.664062 35.984375 " fill-opacity="1" fill-rule="nonzero"/></g><path fill="#0048e8" d="M 42.726562 35 C 44.992188 36.179688 47.601562 36.773438 50.457031 36.773438 C 53.3125 36.773438 55.921875 36.179688 58.234375 35 C 60.5 33.816406 62.324219 32.191406 63.601562 30.074219 C 64.882812 28.007812 65.523438 25.59375 65.523438 22.9375 C 65.523438 20.277344 64.882812 17.914062 63.601562 15.847656 C 62.324219 13.777344 60.5 12.152344 58.234375 10.972656 C 55.921875 9.789062 53.3125 9.199219 50.457031 9.199219 C 47.550781 9.199219 44.941406 9.789062 42.675781 10.972656 C 40.410156 12.152344 38.589844 13.777344 37.308594 15.847656 C 36.03125 17.964844 35.390625 20.328125 35.390625 22.9375 C 35.390625 25.59375 36.03125 28.007812 37.308594 30.074219 C 38.589844 32.191406 40.410156 33.816406 42.726562 35 Z M 54.492188 27.664062 C 53.410156 28.796875 52.082031 29.335938 50.457031 29.335938 C 48.78125 29.335938 47.453125 28.796875 46.417969 27.664062 C 45.335938 26.53125 44.84375 24.953125 44.84375 22.9375 C 44.84375 20.964844 45.335938 19.441406 46.417969 18.308594 C 47.453125 17.222656 48.78125 16.632812 50.457031 16.632812 C 52.082031 16.632812 53.410156 17.222656 54.492188 18.308594 C 55.527344 19.441406 56.070312 20.964844 56.070312 22.9375 C 56.070312 24.953125 55.527344 26.53125 54.492188 27.664062 Z M 54.492188 27.664062 " fill-opacity="1" fill-rule="nonzero"/><path fill="#0048e8" d="M 95.214844 12.152344 C 93.195312 10.183594 90.535156 9.199219 87.238281 9.199219 C 85.515625 9.199219 83.9375 9.492188 82.511719 10.085938 C 81.035156 10.675781 79.800781 11.464844 78.769531 12.546875 L 78.769531 9.640625 L 69.855469 9.640625 L 69.855469 36.328125 L 79.210938 36.328125 L 79.210938 23.429688 C 79.210938 21.359375 79.65625 19.785156 80.640625 18.703125 C 81.625 17.667969 82.90625 17.125 84.53125 17.125 C 87.433594 17.125 88.910156 18.949219 88.910156 22.589844 L 88.910156 36.328125 L 98.265625 36.328125 L 98.265625 21.066406 C 98.265625 17.125 97.234375 14.121094 95.214844 12.152344 Z M 95.214844 12.152344 " fill-opacity="1" fill-rule="nonzero"/><g clip-path="url(#1b7e6553f3)"><path fill="#0048e8" d="M 133.183594 9.640625 L 124.269531 9.640625 L 124.269531 12.890625 C 122.496094 10.429688 119.691406 9.199219 115.898438 9.199219 C 113.535156 9.199219 111.320312 9.742188 109.351562 10.824219 C 107.332031 11.90625 105.757812 13.382812 104.574219 15.351562 C 103.394531 17.324219 102.800781 19.539062 102.800781 22.050781 C 102.800781 24.609375 103.394531 26.875 104.574219 28.84375 C 105.757812 30.8125 107.332031 32.292969 109.351562 33.375 C 111.320312 34.457031 113.535156 34.949219 115.898438 34.949219 C 119.347656 34.949219 122.003906 33.914062 123.828125 31.796875 L 123.828125 32.683594 C 123.828125 34.851562 123.234375 36.425781 122.105469 37.511719 C 120.921875 38.59375 119.148438 39.136719 116.6875 39.136719 C 115.0625 39.136719 113.4375 38.890625 111.765625 38.398438 C 110.089844 37.902344 108.761719 37.164062 107.675781 36.28125 L 104.28125 42.828125 C 105.855469 44.007812 107.824219 44.847656 110.140625 45.4375 C 112.402344 46.027344 114.867188 46.324219 117.523438 46.324219 C 122.546875 46.324219 126.4375 45.09375 129.144531 42.632812 C 131.804688 40.167969 133.183594 36.425781 133.183594 31.453125 Z M 122.25 25.988281 C 121.167969 27.023438 119.789062 27.515625 118.117188 27.515625 C 116.441406 27.515625 115.011719 27.023438 113.929688 25.988281 C 112.796875 25.003906 112.257812 23.675781 112.257812 22.050781 C 112.257812 20.472656 112.796875 19.144531 113.882812 18.160156 C 114.964844 17.175781 116.390625 16.632812 118.117188 16.632812 C 119.789062 16.632812 121.21875 17.175781 122.300781 18.160156 C 123.382812 19.144531 123.925781 20.472656 123.925781 22.050781 C 123.925781 23.675781 123.335938 25.003906 122.25 25.988281 Z M 122.25 25.988281 " fill-opacity="1" fill-rule="nonzero"/></g><path fill="#0048e8" d="M 139.636719 36.328125 L 149.1875 36.328125 L 149.1875 30.519531 L 139.636719 18.355469 Z M 162.875 1.863281 L 162.875 8.117188 L 172.429688 19.636719 L 172.429688 1.863281 Z M 162.875 20.226562 L 147.660156 1.863281 L 139.636719 1.863281 L 139.636719 6.441406 L 149.1875 17.964844 L 164.402344 36.328125 L 172.429688 36.328125 L 172.429688 32.339844 L 162.875 20.179688 Z M 162.875 20.226562 " fill-opacity="1" fill-rule="nonzero"/><g clip-path="url(#6ef691a379)"><path fill="#0048e8" d="M 207.617188 9.640625 L 198.703125 9.640625 L 198.703125 12.890625 C 196.929688 10.429688 194.125 9.199219 190.332031 9.199219 C 187.96875 9.199219 185.753906 9.742188 183.785156 10.824219 C 181.765625 11.90625 180.191406 13.382812 179.007812 15.351562 C 177.828125 17.324219 177.234375 19.539062 177.234375 22.050781 C 177.234375 24.609375 177.828125 26.875 179.007812 28.84375 C 180.191406 30.8125 181.765625 32.292969 183.785156 33.375 C 185.753906 34.457031 187.96875 34.949219 190.332031 34.949219 C 193.78125 34.949219 196.4375 33.914062 198.261719 31.796875 L 198.261719 32.683594 C 198.261719 34.851562 197.667969 36.425781 196.539062 37.511719 C 195.355469 38.59375 193.582031 39.136719 191.121094 39.136719 C 189.496094 39.136719 187.871094 38.890625 186.199219 38.398438 C 184.523438 37.902344 183.195312 37.164062 182.109375 36.28125 L 178.714844 42.828125 C 180.289062 44.007812 182.257812 44.847656 184.574219 45.4375 C 186.835938 46.027344 189.300781 46.324219 191.957031 46.324219 C 196.980469 46.324219 200.871094 45.09375 203.578125 42.632812 C 206.238281 40.167969 207.617188 36.425781 207.617188 31.453125 Z M 196.683594 25.988281 C 195.601562 27.023438 194.222656 27.515625 192.550781 27.515625 C 190.875 27.515625 189.445312 27.023438 188.363281 25.988281 C 187.230469 25.003906 186.691406 23.675781 186.691406 22.050781 C 186.691406 20.472656 187.230469 19.144531 188.316406 18.160156 C 189.398438 17.175781 190.824219 16.632812 192.550781 16.632812 C 194.222656 16.632812 195.652344 17.175781 196.734375 18.160156 C 197.816406 19.144531 198.359375 20.472656 198.359375 22.050781 C 198.359375 23.675781 197.769531 25.003906 196.683594 25.988281 Z M 196.683594 25.988281 " fill-opacity="1" fill-rule="nonzero"/></g><path fill="#0048e8" d="M 241.691406 9.640625 L 232.335938 9.640625 L 232.335938 22.492188 C 232.335938 24.660156 231.84375 26.234375 230.910156 27.269531 C 229.972656 28.304688 228.792969 28.796875 227.316406 28.796875 C 225.835938 28.796875 224.753906 28.351562 224.015625 27.417969 C 223.226562 26.53125 222.882812 25.054688 222.882812 23.035156 L 222.882812 9.640625 L 213.527344 9.640625 L 213.527344 24.5625 C 213.527344 28.648438 214.511719 31.699219 216.582031 33.71875 C 218.648438 35.785156 221.40625 36.773438 224.851562 36.773438 C 226.378906 36.773438 227.855469 36.527344 229.234375 35.933594 C 230.613281 35.394531 231.796875 34.554688 232.78125 33.472656 L 232.78125 36.328125 L 241.691406 36.328125 Z M 235.683594 9.640625 L 235.683594 15.550781 L 237.015625 15.550781 C 239.917969 15.550781 242.183594 14.8125 243.859375 13.285156 C 245.484375 11.808594 246.320312 9.691406 246.320312 6.933594 C 246.320312 4.914062 245.730469 3.191406 244.597656 1.765625 L 239.179688 3.683594 C 239.476562 4.078125 239.671875 4.519531 239.871094 5.011719 C 240.066406 5.507812 240.164062 6.046875 240.164062 6.539062 C 240.164062 7.425781 239.871094 8.164062 239.328125 8.753906 C 238.785156 9.347656 238.148438 9.640625 237.359375 9.640625 Z M 235.683594 9.640625 " fill-opacity="1" fill-rule="nonzero"/><path fill="#0048e8" d="M 247.523438 35.195312 C 248.609375 36.28125 249.9375 36.773438 251.511719 36.773438 C 253.089844 36.773438 254.417969 36.28125 255.5 35.195312 C 256.585938 34.164062 257.125 32.832031 257.125 31.207031 C 257.125 29.582031 256.585938 28.253906 255.550781 27.21875 C 254.46875 26.234375 253.136719 25.691406 251.511719 25.691406 C 249.886719 25.691406 248.558594 26.234375 247.476562 27.21875 C 246.390625 28.253906 245.898438 29.582031 245.898438 31.207031 C 245.898438 32.832031 246.441406 34.164062 247.523438 35.195312 Z M 247.523438 35.195312 " fill-opacity="1" fill-rule="nonzero"/><path fill="#0048e8" d="M 278.457031 36.328125 L 289.140625 36.328125 L 278.949219 22.640625 L 288.796875 9.640625 L 278.898438 9.640625 L 273.976562 16.386719 L 269.25 9.640625 L 258.710938 9.640625 L 268.558594 22.984375 L 258.414062 36.328125 L 268.558594 36.328125 L 273.679688 29.335938 Z M 278.457031 36.328125 " fill-opacity="1" fill-rule="nonzero"/><g clip-path="url(#3b7a609276)"><path fill="#0048e8" d="M 318.675781 9.640625 L 309.761719 9.640625 L 303.164062 25.941406 L 296.617188 9.640625 L 287.015625 9.640625 L 298.4375 36.671875 C 298.042969 37.460938 297.550781 38.050781 296.960938 38.398438 C 296.371094 38.789062 295.679688 38.9375 294.792969 38.9375 C 294.007812 38.9375 293.269531 38.839844 292.53125 38.542969 C 291.792969 38.25 291.152344 37.855469 290.660156 37.363281 L 287.410156 43.910156 C 288.296875 44.648438 289.429688 45.242188 290.855469 45.683594 C 292.285156 46.125 293.710938 46.324219 295.140625 46.324219 C 297.898438 46.324219 300.261719 45.683594 302.230469 44.355469 C 304.148438 43.023438 305.773438 40.710938 307.152344 37.410156 Z M 318.675781 9.640625 " fill-opacity="1" fill-rule="nonzero"/></g><path fill="#0048e8" d="M 343.804688 29.335938 L 330.953125 29.335938 L 343.3125 15.105469 L 343.3125 9.640625 L 319.53125 9.640625 L 319.53125 16.585938 L 331.542969 16.585938 L 319.1875 30.8125 L 319.1875 36.328125 L 343.804688 36.328125 Z M 343.804688 29.335938 " fill-opacity="1" fill-rule="nonzero"/><g clip-path="url(#e31e736726)"><path fill="#1a1444" d="M 9.1875 35.054688 C 11.796875 35.742188 14.503906 36.089844 17.308594 36.089844 C 20.558594 36.089844 23.367188 35.597656 25.679688 34.613281 C 27.945312 33.625 29.667969 32.246094 30.851562 30.574219 C 31.984375 28.898438 32.574219 27.027344 32.574219 24.960938 C 32.574219 22.597656 31.933594 20.675781 30.652344 19.296875 C 29.375 17.917969 27.894531 16.886719 26.171875 16.246094 C 24.449219 15.605469 22.28125 15.015625 19.671875 14.425781 C 17.308594 13.929688 15.636719 13.488281 14.601562 12.996094 C 13.519531 12.554688 13.027344 11.863281 13.027344 10.929688 C 13.027344 10.042969 13.46875 9.304688 14.355469 8.710938 C 15.242188 8.121094 16.621094 7.824219 18.589844 7.824219 C 21.644531 7.824219 24.84375 8.710938 28.140625 10.484375 L 31.144531 3.246094 C 29.472656 2.261719 27.503906 1.523438 25.335938 1.03125 C 23.121094 0.539062 20.90625 0.242188 18.640625 0.242188 C 15.292969 0.242188 12.484375 0.734375 10.21875 1.71875 C 7.953125 2.707031 6.230469 4.085938 5.097656 5.757812 C 3.917969 7.433594 3.375 9.351562 3.375 11.421875 C 3.375 13.832031 3.964844 15.753906 5.246094 17.132812 C 6.476562 18.558594 7.953125 19.59375 9.726562 20.234375 C 11.449219 20.875 13.617188 21.464844 16.226562 22.007812 C 18.589844 22.546875 20.265625 23.039062 21.347656 23.53125 C 22.429688 24.023438 22.972656 24.714844 22.972656 25.699219 C 22.972656 27.570312 21.101562 28.507812 17.359375 28.507812 C 15.390625 28.507812 13.371094 28.210938 11.351562 27.570312 C 9.285156 26.980469 7.511719 26.140625 5.984375 25.109375 L 2.785156 32.296875 C 4.410156 33.480469 6.527344 34.363281 9.1875 35.054688 Z M 9.1875 35.054688 " fill-opacity="1" fill-rule="nonzero"/></g><path fill="#1a1444" d="M 42.25 34.070312 C 44.511719 35.25 47.121094 35.84375 49.980469 35.84375 C 52.835938 35.84375 55.445312 35.25 57.757812 34.070312 C 60.023438 32.886719 61.84375 31.261719 63.125 29.144531 C 64.40625 27.078125 65.046875 24.664062 65.046875 22.007812 C 65.046875 19.347656 64.40625 16.984375 63.125 14.917969 C 61.84375 12.847656 60.023438 11.222656 57.757812 10.042969 C 55.445312 8.859375 52.835938 8.269531 49.980469 8.269531 C 47.074219 8.269531 44.464844 8.859375 42.199219 10.042969 C 39.933594 11.222656 38.113281 12.847656 36.832031 14.917969 C 35.550781 17.035156 34.910156 19.398438 34.910156 22.007812 C 34.910156 24.664062 35.550781 27.078125 36.832031 29.144531 C 38.113281 31.261719 39.933594 32.886719 42.25 34.070312 Z M 54.015625 26.734375 C 52.933594 27.867188 51.601562 28.40625 49.980469 28.40625 C 48.304688 28.40625 46.976562 27.867188 45.941406 26.734375 C 44.859375 25.601562 44.367188 24.023438 44.367188 22.007812 C 44.367188 20.035156 44.859375 18.511719 45.941406 17.378906 C 46.976562 16.296875 48.304688 15.703125 49.980469 15.703125 C 51.601562 15.703125 52.933594 16.296875 54.015625 17.378906 C 55.050781 18.511719 55.589844 20.035156 55.589844 22.007812 C 55.589844 24.023438 55.050781 25.601562 54.015625 26.734375 Z M 54.015625 26.734375 " fill-opacity="1" fill-rule="nonzero"/><path fill="#1a1444" d="M 94.734375 11.222656 C 92.71875 9.253906 90.058594 8.269531 86.761719 8.269531 C 85.035156 8.269531 83.460938 8.566406 82.03125 9.15625 C 80.554688 9.746094 79.324219 10.535156 78.289062 11.617188 L 78.289062 8.710938 L 69.378906 8.710938 L 69.378906 35.398438 L 78.734375 35.398438 L 78.734375 22.5 C 78.734375 20.429688 79.175781 18.855469 80.160156 17.773438 C 81.148438 16.738281 82.425781 16.195312 84.050781 16.195312 C 86.957031 16.195312 88.433594 18.019531 88.433594 21.660156 L 88.433594 35.398438 L 97.789062 35.398438 L 97.789062 20.136719 C 97.789062 16.195312 96.753906 13.191406 94.734375 11.222656 Z M 94.734375 11.222656 " fill-opacity="1" fill-rule="nonzero"/><g clip-path="url(#54c5d998b3)"><path fill="#1a1444" d="M 132.703125 8.710938 L 123.792969 8.710938 L 123.792969 11.960938 C 122.019531 9.5 119.214844 8.269531 115.421875 8.269531 C 113.058594 8.269531 110.84375 8.8125 108.875 9.894531 C 106.855469 10.976562 105.277344 12.453125 104.097656 14.425781 C 102.914062 16.394531 102.324219 18.609375 102.324219 21.121094 C 102.324219 23.679688 102.914062 25.945312 104.097656 27.914062 C 105.277344 29.882812 106.855469 31.363281 108.875 32.445312 C 110.84375 33.527344 113.058594 34.019531 115.421875 34.019531 C 118.867188 34.019531 121.527344 32.988281 123.347656 30.871094 L 123.347656 31.753906 C 123.347656 33.921875 122.757812 35.496094 121.625 36.582031 C 120.445312 37.664062 118.671875 38.207031 116.210938 38.207031 C 114.585938 38.207031 112.960938 37.960938 111.285156 37.46875 C 109.613281 36.976562 108.28125 36.234375 107.199219 35.351562 L 103.800781 41.898438 C 105.378906 43.082031 107.347656 43.917969 109.660156 44.507812 C 111.925781 45.097656 114.386719 45.394531 117.046875 45.394531 C 122.070312 45.394531 125.960938 44.164062 128.667969 41.703125 C 131.324219 39.238281 132.703125 35.496094 132.703125 30.523438 Z M 121.773438 25.058594 C 120.691406 26.09375 119.3125 26.585938 117.636719 26.585938 C 115.964844 26.585938 114.535156 26.09375 113.453125 25.058594 C 112.320312 24.074219 111.777344 22.746094 111.777344 21.121094 C 111.777344 19.542969 112.320312 18.214844 113.402344 17.230469 C 114.488281 16.246094 115.914062 15.703125 117.636719 15.703125 C 119.3125 15.703125 120.738281 16.246094 121.824219 17.230469 C 122.90625 18.214844 123.449219 19.542969 123.449219 21.121094 C 123.449219 22.746094 122.855469 24.074219 121.773438 25.058594 Z M 121.773438 25.058594 " fill-opacity="1" fill-rule="nonzero"/></g><path fill="#1a1444" d="M 139.160156 35.398438 L 148.710938 35.398438 L 148.710938 29.589844 L 139.160156 17.425781 Z M 162.398438 0.933594 L 162.398438 7.1875 L 171.949219 18.707031 L 171.949219 0.933594 Z M 162.398438 19.296875 L 147.183594 0.933594 L 139.160156 0.933594 L 139.160156 5.511719 L 148.710938 17.035156 L 163.925781 35.398438 L 171.949219 35.398438 L 171.949219 31.410156 L 162.398438 19.25 Z M 162.398438 19.296875 " fill-opacity="1" fill-rule="nonzero"/><g clip-path="url(#435bc9a1a3)"><path fill="#1a1444" d="M 207.136719 8.710938 L 198.226562 8.710938 L 198.226562 11.960938 C 196.453125 9.5 193.648438 8.269531 189.855469 8.269531 C 187.492188 8.269531 185.277344 8.8125 183.308594 9.894531 C 181.289062 10.976562 179.710938 12.453125 178.53125 14.425781 C 177.347656 16.394531 176.757812 18.609375 176.757812 21.121094 C 176.757812 23.679688 177.347656 25.945312 178.53125 27.914062 C 179.710938 29.882812 181.289062 31.363281 183.308594 32.445312 C 185.277344 33.527344 187.492188 34.019531 189.855469 34.019531 C 193.300781 34.019531 195.960938 32.988281 197.78125 30.871094 L 197.78125 31.753906 C 197.78125 33.921875 197.191406 35.496094 196.058594 36.582031 C 194.878906 37.664062 193.105469 38.207031 190.644531 38.207031 C 189.019531 38.207031 187.394531 37.960938 185.71875 37.46875 C 184.046875 36.976562 182.714844 36.234375 181.632812 35.351562 L 178.234375 41.898438 C 179.8125 43.082031 181.78125 43.917969 184.09375 44.507812 C 186.359375 45.097656 188.820312 45.394531 191.480469 45.394531 C 196.503906 45.394531 200.390625 44.164062 203.101562 41.703125 C 205.757812 39.238281 207.136719 35.496094 207.136719 30.523438 Z M 196.207031 25.058594 C 195.125 26.09375 193.746094 26.585938 192.070312 26.585938 C 190.398438 26.585938 188.96875 26.09375 187.886719 25.058594 C 186.753906 24.074219 186.210938 22.746094 186.210938 21.121094 C 186.210938 19.542969 186.753906 18.214844 187.835938 17.230469 C 188.921875 16.246094 190.347656 15.703125 192.070312 15.703125 C 193.746094 15.703125 195.171875 16.246094 196.257812 17.230469 C 197.339844 18.214844 197.882812 19.542969 197.882812 21.121094 C 197.882812 22.746094 197.289062 24.074219 196.207031 25.058594 Z M 196.207031 25.058594 " fill-opacity="1" fill-rule="nonzero"/></g><path fill="#1a1444" d="M 241.214844 8.710938 L 231.859375 8.710938 L 231.859375 21.5625 C 231.859375 23.730469 231.367188 25.304688 230.429688 26.339844 C 229.496094 27.375 228.3125 27.867188 226.835938 27.867188 C 225.359375 27.867188 224.277344 27.421875 223.539062 26.488281 C 222.75 25.601562 222.40625 24.125 222.40625 22.105469 L 222.40625 8.710938 L 213.050781 8.710938 L 213.050781 23.632812 C 213.050781 27.71875 214.035156 30.769531 216.101562 32.789062 C 218.171875 34.859375 220.929688 35.84375 224.375 35.84375 C 225.902344 35.84375 227.378906 35.597656 228.757812 35.003906 C 230.136719 34.464844 231.316406 33.625 232.300781 32.542969 L 232.300781 35.398438 L 241.214844 35.398438 Z M 235.207031 8.710938 L 235.207031 14.621094 L 236.535156 14.621094 C 239.441406 14.621094 241.707031 13.882812 243.378906 12.355469 C 245.003906 10.878906 245.84375 8.761719 245.84375 6.003906 C 245.84375 3.984375 245.25 2.261719 244.121094 0.835938 L 238.703125 2.753906 C 239 3.148438 239.195312 3.589844 239.390625 4.085938 C 239.589844 4.578125 239.6875 5.117188 239.6875 5.609375 C 239.6875 6.496094 239.390625 7.234375 238.851562 7.824219 C 238.308594 8.417969 237.667969 8.710938 236.882812 8.710938 Z M 235.207031 8.710938 " fill-opacity="1" fill-rule="nonzero"/><path fill="#1a1444" d="M 247.046875 34.265625 C 248.128906 35.351562 249.460938 35.84375 251.035156 35.84375 C 252.609375 35.84375 253.941406 35.351562 255.023438 34.265625 C 256.105469 33.234375 256.648438 31.902344 256.648438 30.277344 C 256.648438 28.652344 256.105469 27.324219 255.074219 26.289062 C 253.988281 25.304688 252.660156 24.765625 251.035156 24.765625 C 249.410156 24.765625 248.082031 25.304688 246.996094 26.289062 C 245.914062 27.324219 245.421875 28.652344 245.421875 30.277344 C 245.421875 31.902344 245.964844 33.234375 247.046875 34.265625 Z M 247.046875 34.265625 " fill-opacity="1" fill-rule="nonzero"/><path fill="#1a1444" d="M 277.976562 35.398438 L 288.664062 35.398438 L 278.46875 21.710938 L 288.316406 8.710938 L 278.421875 8.710938 L 273.496094 15.457031 L 268.769531 8.710938 L 258.234375 8.710938 L 268.082031 22.054688 L 257.9375 35.398438 L 268.082031 35.398438 L 273.203125 28.40625 Z M 277.976562 35.398438 " fill-opacity="1" fill-rule="nonzero"/><g clip-path="url(#96e178fca8)"><path fill="#1a1444" d="M 318.199219 8.710938 L 309.285156 8.710938 L 302.6875 25.011719 L 296.140625 8.710938 L 286.539062 8.710938 L 297.960938 35.742188 C 297.566406 36.53125 297.074219 37.121094 296.484375 37.46875 C 295.894531 37.859375 295.203125 38.007812 294.316406 38.007812 C 293.527344 38.007812 292.789062 37.910156 292.050781 37.613281 C 291.3125 37.320312 290.671875 36.925781 290.179688 36.433594 L 286.929688 42.980469 C 287.816406 43.71875 288.949219 44.3125 290.378906 44.753906 C 291.804688 45.199219 293.234375 45.394531 294.660156 45.394531 C 297.417969 45.394531 299.78125 44.753906 301.75 43.425781 C 303.671875 42.09375 305.296875 39.78125 306.675781 36.480469 Z M 318.199219 8.710938 " fill-opacity="1" fill-rule="nonzero"/></g><path fill="#1a1444" d="M 343.328125 28.40625 L 330.476562 28.40625 L 342.835938 14.179688 L 342.835938 8.710938 L 319.054688 8.710938 L 319.054688 15.65625 L 331.066406 15.65625 L 318.707031 29.882812 L 318.707031 35.398438 L 343.328125 35.398438 Z M 343.328125 28.40625 " fill-opacity="1" fill-rule="nonzero"/></svg>